<svg xmlns="http://www.w3.org/2000/svg" viewBox="0 0 268.7 252.3"><style>.a{fill:#FFF;}</style><path d="M268.4 205.8c0.3 0.2 0.4 0.6 0.3 0.9 -0.1 0.3-0.3 0.5-0.6 0.6 -0.3 0-0.6 0-0.9 0 -1.2 0-2.4 0-3.6 0.3 -0.2 0-0.4 0.1-0.6 0.1 -1.6 0.5-3.2 1.1-4.6 1.9 -0.8 0.5-1.6 0.9-2.5 1.4 0-0.2 0-0.4 0-0.4 0.2-0.2 0.3-0.5 0.6-0.6 1.1-0.9 2.2-1.7 3.2-2.6 0.9-0.7 1.9-1.2 3-1.4 0.3-0.1 0.6-0.2 1-0.2 0.1-0.2-0.1-0.3-0.2-0.4 -0.4-0.2-0.9-0.5-1.3-0.7 -1.3-0.8-2.3-2-3-3.5 0.2 0 0.3-0.1 0.4 0 0.3 0.2 0.6 0.5 0.9 0.7 0.4 0.3 0.9 0.6 1.4 0.9 1.8 1 3.7 1.9 5.7 2.7C267.8 205.5 268.1 205.6 268.4 205.8z"/><path d="M261 205.1c0 0.2-0.2 0.5-0.4 0.6 -0.1 0-0.2 0-0.2 0.1 -0.2 0-0.4 0-0.6 0 -1.9-0.1-3.8-0.2-5.6-0.3 -0.3 0-0.6-0.1-0.9-0.1 -2.4-0.1-4.8-0.2-7.1-0.3 -2.2-0.1-4.4-0.3-6.6-0.4 -1.4-0.1-2.8-0.2-4.1-0.3 -1.4-0.1-2.7-0.3-4.1-0.4 -1.4-0.1-2.7-0.3-4.1-0.5 -0.3 0-0.6 0.1-0.8 0.2 -0.8 0.6-1.5 1.1-2.3 1.7 -0.7 0.5-1.4 0.8-2.3 1 -0.4 0.1-0.7 0.2-1.1 0.1 -0.3-0.1-0.6-0.1-0.9-0.1 -1.3-0.1-2.7-0.2-4-0.3 -0.7 0-1.3-0.1-2-0.2 -0.6-0.1-1.3-0.1-1.9-0.1 -0.2 0-0.4-0.1-0.6-0.1 0 0-0.1-0.2 0-0.2 0.1-0.1 0.2-0.2 0.3-0.3 1.5-1.2 3-2.4 4.5-3.6 0.1 0 0.1-0.1 0.2-0.3 -0.6-0.9-1-1.8-1.7-2.7 -0.3-0.4-0.5-0.9-0.8-1.3 0.2-0.1 0.3-0.2 0.4-0.1 1.2 0.1 2.3 0.2 3.5 0.3 2 0.2 4 0.5 6 0.7 0.6 0.1 1 0.2 1.4 0.7 0.6 0.6 1.2 1.2 1.9 1.9 0.2 0.2 0.4 0.4 0.6 0.7 0.1 0.2 0.2 0.4 0.4 0.7 0.2 0 0.4 0.1 0.7 0.1 2 0.2 4.1 0.5 6.1 0.7 1.2 0.1 2.4 0.2 3.6 0.3 1.5 0.1 2.9 0.3 4.4 0.4 0.2 0 0.5 0 0.8 0.1 1.8 0.1 3.7 0.2 5.5 0.3 1.9 0.1 3.8 0.3 5.6 0.4 1.8 0.1 3.6 0.2 5.4 0.3 0.3 0 0.5 0 0.7 0.1C260.9 204.7 261 204.9 261 205.1zM225 201.4c0-0.1-0.1-0.2-0.1-0.3 -0.3-0.3-0.7-0.6-1-1 -0.2-0.2-0.5-0.4-0.9-0.4 -1.1-0.1-2.1-0.3-3.2-0.5 -0.5-0.1-1.1-0.1-1.6-0.2 -0.1 0-0.2 0.2-0.2 0.3 0.1 0.1 0.2 0.3 0.3 0.4 0.2 0.1 0.4 0.2 0.5 0.3 0.4 0.3 0.5 0.8 0.1 1.2 -0.2 0.2-0.4 0.4-0.6 0.6 -0.6 0.5-1.2 0.9-1.8 1.4 -0.1 0.1-0.2 0.2-0.3 0.4 0.6 0.2 1.1 0.3 1.7 0.3 1.2 0.1 2.3 0.2 3.5 0.4 0.5 0.1 1 0 1.5-0.2 0.4-0.2 0.9-0.5 1.3-0.8 0.1-0.1 0.1-0.2 0.2-0.4 -0.3 0-0.6-0.1-0.9-0.1 -0.4-0.1-0.7-0.1-1.1-0.2 -0.3-0.1-0.5-0.4-0.5-0.8 0-0.4 0.3-0.7 0.7-0.7 0.2 0 0.5 0 0.8 0 0.5 0.1 1 0.1 1.5 0.2C224.8 201.5 224.9 201.5 225 201.4z"/><path d="M256.9 233.5c0.2 0.2 0.2 0.5 0.1 0.8 -0.2 0.3-0.5 0.5-0.8 0.5 -0.5 0-1.1-0.2-1.6-0.2 -2.3-0.3-4.7-0.3-7 0.3 -0.4 0.1-0.7 0.2-1.1 0.3 -0.3 0.1-0.6 0-0.5-0.1 0-0.2 0.2-0.3 0.3-0.4 0.7-0.4 1.3-0.7 2-1.1 1.1-0.6 2.3-0.9 3.5-0.9 0.5 0 1 0 1.5 0 0 0 0.1 0 0.2-0.1 -0.4-0.4-0.7-0.7-0.9-1 -0.5-0.5-1.1-1.1-1.6-1.6 -0.6-0.7-1-1.5-1-2.5 0-0.6-0.1-1.2-0.1-1.9 0.2 0.2 0.3 0.3 0.4 0.4 0.6 1.5 1.7 2.6 2.8 3.7 1 1 2.1 2 3.1 3.1C256.5 233 256.7 233.3 256.9 233.5z"/><path d="M251.3 231.2c0.2 0.1 0.3 0.4 0.2 0.6 -0.1 0.2-0.4 0.4-0.6 0.3 -0.1 0-0.2-0.1-0.4-0.1 -0.2-0.1-0.4-0.1-0.6-0.2 -2.9-1.1-5.9-2.2-8.8-3.3 -11.7-4.5-23.2-9.3-34.7-14.3 -0.2-0.1-0.4-0.1-0.6-0.2 -0.5-0.2-0.9-0.3-1.5-0.2 -1.5 0.2-3.1 0.4-4.6 0.6 -0.5 0.1-1.1 0.2-1.6 0.4 -0.5 0.2-0.9 0.1-1.3-0.2 -0.3-0.2-0.6-0.4-1-0.6 -3.3-2.2-6.7-4.3-10-6.5 -0.1-0.1-0.1-0.2-0.1-0.3 0 0 0.1-0.1 0.2-0.1 0.3 0 0.7 0 1 0 1.6 0 3.2 0.1 4.8 0.1 1.2 0 2.4 0.1 3.6 0.1 0.2 0 0.3 0 0.6 0 -0.4-1.3-0.8-2.5-1.2-3.7 -0.1-0.2-0.2-0.5 0.1-0.7 0.9 0.4 1.8 0.8 2.7 1.2 2.2 1 4.3 2 6.5 3 0.1 0.1 0.3 0.1 0.4 0.2 0.5 0.2 0.8 0.6 0.8 1.2 0.1 0.8 0.2 1.7 0.3 2.5 0 0.3 0.1 0.5 0.1 0.7 0 0.2 0.2 0.4 0.4 0.5 0.2 0.1 0.4 0.2 0.6 0.3 10.2 4.4 20.5 8.9 30.8 13.2 4.2 1.7 8.5 3.4 12.7 5.1C250.6 230.9 251 231.1 251.3 231.2zM204.1 211.2c0-0.5-0.2-0.9-0.3-1.4 -0.1-0.5-0.4-0.8-0.8-1 -1.8-0.9-3.6-1.9-5.4-2.9 -0.1-0.1-0.2 0-0.4-0.1 0 1.2 0.5 2.2 0.5 3.4 -0.5 0.1-1 0.1-1.5 0.1 -0.5 0-1 0-1.5 0 -0.5 0-1.1 0-1.6 0 -0.5 0-1-0.1-1.7 0.1 2 1.2 3.7 2.2 5.5 3.2 0.4 0.2 0.8 0.3 1.3 0.1 0.2-0.1 0.4-0.1 0.6-0.1 0.9-0.1 1.8-0.2 2.6-0.3 0 0 0.1-0.1 0.1-0.1 -0.2-0.4-0.6-0.4-1-0.6 -0.3-0.2-0.6-0.3-0.9-0.4 -0.3-0.2-0.4-0.7-0.2-1 0.2-0.3 0.6-0.6 0.9-0.4 0.2 0.1 0.5 0.2 0.7 0.3 0.9 0.4 1.8 0.8 2.8 1.2C203.8 211.2 203.9 211.2 204.1 211.2z"/><path d="M222.4 181.2c-0.1 0.2-0.3 0.2-0.4 0.1 -0.9 0-1.8-0.1-2.8-0.1 -1.5-0.1-2.9-0.2-4.4-0.4 -1.3-0.1-2.6-0.3-3.9-0.4 -1-0.1-2-0.2-3-0.3 -2.2-0.2-4.4-0.4-6.6-0.6 -2.1-0.2-4.2-0.4-6.4-0.6 -1.2-0.1-2.5-0.2-3.7-0.3 -1.3-0.1-2.7-0.3-4-0.4 -1.3-0.1-2.6-0.2-3.9-0.4 -0.4 0-0.8 0-1.1-0.1 -0.4-0.1-0.7-0.1-1.1 0 -0.2 0.1-0.5 0.1-0.7 0.1 -1.9 0.3-3.7 0-5.4-0.6 -0.6-0.2-1.1-0.3-1.7-0.4 -1.6-0.1-3.2-0.3-4.9-0.5 -0.9-0.1-1.8-0.2-2.7-0.2 -0.3 0-0.5 0.2-0.4 0.5 0 0.1 0.1 0.2 0.2 0.3 0.2 0.1 0.4 0.1 0.6 0.1 2 0.2 3.9 0.4 5.9 0.6 1.2 0.1 2.3 0.3 3.5 0.4 0.9 0.1 1.8 0.2 2.7 0.3 1.2 0.1 2.3 0.2 3.5 0.3 1.2 0.1 2.4 0.3 3.6 0.4 1 0.1 1.9 0.2 2.9 0.3 1.2 0.1 2.3 0.2 3.5 0.3 1.2 0.1 2.3 0.3 3.5 0.4 1 0.1 2 0.2 3 0.3 1.5 0.1 3.1 0.3 4.6 0.5 0.5 0.1 0.9 0.1 1.4 0.1 0.2 0 0.3 0.1 0.4 0.2 -1.5-0.1-3-0.2-4.4-0.4 -1.2-0.1-2.4-0.3-3.6-0.4 -0.9-0.1-1.7-0.2-2.6-0.3 -1.2-0.1-2.4-0.2-3.6-0.3 -1.2-0.1-2.5-0.3-3.7-0.4 -1-0.1-1.9-0.2-2.9-0.3 -1.2-0.1-2.4-0.2-3.6-0.3 -1.2-0.1-2.5-0.3-3.7-0.4 -1.1-0.1-2.2-0.2-3.2-0.3 -1.2-0.1-2.5-0.2-3.7-0.3 -1.2-0.1-2.3-0.2-3.5-0.4 -0.1 0-0.2 0-0.3 0 -0.2 0.2-0.2 0.4-0.2 0.6 0 0.2 0.1 0.3 0.3 0.4 0.2 0.1 0.5 0.1 0.7 0.1 1.9 0.2 3.7 0.4 5.6 0.6 1.9 0.2 3.8 0.4 5.7 0.6 0.9 0.1 1.8 0.2 2.7 0.3 1.9 0.2 3.8 0.4 5.7 0.6 1.9 0.2 3.8 0.4 5.7 0.6 2 0.2 3.9 0.4 5.9 0.6 1.1 0.1 2.2 0.3 3.4 0.4 1 0.1 1.9 0.2 2.9 0.3 1.1 0.1 2.3 0.2 3.4 0.3 1.1 0.1 2.2 0.3 3.4 0.4 0.5 0.1 0.9 0.1 1.4 0.1 0.2 0 0.3 0.1 0.4 0.2 -1.9-0.1-3.8-0.3-5.7-0.5 -1.2-0.1-2.4-0.2-3.6-0.3 -1.2-0.1-2.5-0.3-3.7-0.4 -1-0.1-1.9-0.2-2.9-0.3 -2.1-0.2-4.3-0.4-6.4-0.6 -2.1-0.2-4.2-0.4-6.2-0.6 -1-0.1-1.9-0.2-2.9-0.3 -2.2-0.2-4.3-0.4-6.5-0.6 -2.1-0.2-4.2-0.4-6.4-0.6 -0.9-0.1-1.8-0.2-2.8-0.2 -0.1 0-0.3 0.1-0.3 0.2 -0.1 0.1-0.1 0.3 0 0.5 0 0.1 0.1 0.1 0.2 0.2 0.1 0 0.2 0.1 0.4 0.1 2.6 0.3 5.2 0.5 7.7 0.8 2.7 0.3 5.3 0.6 8 0.9 1.9 0.2 3.8 0.4 5.7 0.6 1.9 0.2 3.8 0.4 5.7 0.6 0.9 0.1 1.7 0.2 2.6 0.3 1.9 0.2 3.8 0.4 5.7 0.6 1.1 0.1 2.2 0.3 3.4 0.4 0.8 0.1 1.6 0.2 2.4 0.3 1 0.1 2 0.3 3 0.5 -0.3 0-0.5 0-0.8 0 -0.8-0.1-1.7-0.1-2.5-0.2 -1-0.1-1.9-0.2-2.9-0.3 -1.5-0.2-3-0.3-4.5-0.5 -1.2-0.1-2.3-0.3-3.5-0.4 -1-0.1-2.1-0.2-3.1-0.3 -2-0.2-4.1-0.4-6.1-0.6 -2-0.2-4-0.4-6-0.6 -2-0.2-4.1-0.4-6.1-0.6 -2.1-0.2-4.2-0.4-6.2-0.6 -1.1-0.1-2.2-0.2-3.3-0.3 -0.3 0.1-0.4 0.3-0.5 0.5 -0.1 0.2-0.1 0.4-0.2 0.6 0.7 0.1 1.4 0.2 2.1 0.3 2 0.2 4 0.5 6 0.7 0.9 0.1 1.8 0.2 2.7 0.3 2.2 0.2 4.3 0.5 6.5 0.7 1.9 0.2 3.7 0.4 5.6 0.6 1.9 0.2 3.7 0.4 5.6 0.7 1.1 0.1 2.2 0.2 3.2 0.3 1.1 0.1 2.2 0.3 3.4 0.4 0.5 0.1 0.9 0.1 1.4 0.1 0.1 0 0.3 0.2 0.4 0.3 -1.4-0.1-2.8-0.2-4.2-0.4 -1.2-0.1-2.3-0.3-3.5-0.4 -0.9-0.1-1.8-0.2-2.7-0.3 -2-0.2-4.1-0.4-6.1-0.6 -2-0.2-4-0.4-6-0.6 -1.2-0.1-2.4-0.2-3.6-0.3 -1.2-0.1-2.4-0.3-3.6-0.4 -0.8-0.1-1.6-0.2-2.4-0.2 -1.7-0.2-3.4-0.3-5.1-0.5 -0.4 0.4-0.8 0.8-1 1.3 0.5 0.1 0.9 0.2 1.3 0.2 1.8 0.2 3.7 0.4 5.5 0.6 1.1 0.1 2.2 0.3 3.4 0.4 0.9 0.1 1.7 0.2 2.6 0.3 1.9 0.2 3.7 0.4 5.6 0.6 1.9 0.2 3.7 0.5 5.6 0.7 1.9 0.2 3.7 0.4 5.6 0.6 0.9 0.1 1.7 0.2 2.6 0.3 0.2 0 0.3 0.1 0.3 0.3 -0.1 0-0.2 0.1-0.2 0.1 -0.7-0.1-1.5-0.1-2.2-0.2 -1.9-0.2-3.7-0.4-5.6-0.6 -1.1-0.1-2.2-0.2-3.4-0.3 -1.1-0.1-2.2-0.3-3.4-0.4 -0.9-0.1-1.8-0.2-2.7-0.3 -1.9-0.2-3.8-0.4-5.7-0.6 -1.9-0.2-3.8-0.4-5.7-0.6 -0.9-0.1-1.8-0.2-2.7-0.3 -0.5 0-0.9 0-1.5-0.1 -0.2 0.2-0.4 0.4-0.5 0.7 -0.6 0.8-1.4 1.3-2.3 1.7 -0.4 0.2-0.8 0.3-1.1 0.5 -0.3 0.1-0.5 0.2-0.8 0.4 -0.4 0.3-0.9 0.6-1.5 0.6 -0.2 0-0.4 0.1-0.6 0.2 -1.1 0.4-2.2 0.5-3.3 0.5 -1.3-0.1-2.6-0.3-3.8-0.7 -0.2-0.1-0.4-0.2-0.6-0.2 -2.1-0.8-3.6-2.3-4.5-4.3 0-0.1-0.1-0.2-0.1-0.2 -0.5-1.2-0.3-1.1-1.7-1.3 -1.2-0.1-2.5-0.3-3.7-0.4 -1-0.1-1.9-0.2-2.9-0.3 -2.8-0.3-5.6-0.6-8.4-0.8 -2-0.2-3.9-0.4-5.9-0.7 -2-0.2-3.9-0.4-5.9-0.6 -2-0.2-3.9-0.4-5.9-0.6 -1.1-0.1-2.2-0.2-3.4-0.3 -1.2-0.1-2.4-0.3-3.6-0.4 -1-0.1-1.9-0.2-2.9-0.3 -2-0.2-4-0.4-6-0.6 -2-0.2-4-0.4-6-0.6 -0.2 0-0.4 0-0.6-0.1 -0.7-0.1-1.4 0-2 0.5 -0.2 0.2-0.4 0.3-0.7 0.4 -1.4 0.7-2.9 1.4-4.3 2 -2.4 1-4.9 1.2-7.4 0.6 -1.7-0.4-3-1.4-4.1-2.8 -0.5-0.6-0.8-1.3-1.3-2 -0.2-0.3-0.3-0.6-0.5-0.9 -0.2-0.1-0.4-0.1-0.6-0.2 -1.8-0.2-3.7-0.4-5.5-0.6 -1.8-0.2-3.7-0.4-5.5-0.6 -0.9-0.1-1.7-0.2-2.6-0.3 -2.6-0.3-5.2-0.6-7.9-0.8 -2.6-0.3-5.2-0.6-7.7-0.9 -1.9-0.2-3.7-0.4-5.6-0.6 -2.5-0.3-5.1-0.6-7.6-0.9 -1.7-0.2-3.4-0.4-5.1-0.6 -1.7-0.2-3.3-0.4-5-0.6 -1-0.1-2-0.2-3-0.4 -0.8-0.1-1.5-0.2-2.3-0.4 0.5 0 0.9 0 1.4 0 1.5 0.1 2.9 0.3 4.4 0.4 1.3 0.1 2.6 0.3 3.9 0.4 1 0.1 2 0.2 3 0.3 1.3 0.1 2.5 0.2 3.8 0.3 1.1 0.1 2.2 0.2 3.4 0.4 0.9 0.1 1.8 0.2 2.7 0.3 2 0.2 3.9 0.4 5.9 0.6 1.9 0.2 3.8 0.4 5.7 0.6 1.1 0.1 2.3 0.2 3.4 0.3 1.2 0.1 2.3 0.3 3.5 0.4 0.9 0.1 1.7 0.2 2.6 0.3 2 0.2 3.9 0.4 5.9 0.6 1.9 0.2 3.8 0.4 5.7 0.6 0.8 0.1 1.6 0.2 2.4 0.2 0.2 0 0.3-0.1 0.4-0.3 0-0.2 0-0.4-0.2-0.6 -0.1-0.1-0.2-0.1-0.4-0.1 -1.4-0.2-2.8-0.3-4.2-0.5 -2.1-0.2-4.2-0.5-6.4-0.7 -0.9-0.1-1.7-0.2-2.6-0.3 -2.7-0.3-5.5-0.7-8.2-1 -2.4-0.3-4.8-0.6-7.2-0.8 -1.8-0.2-3.6-0.5-5.4-0.7 -1.1-0.1-2.2-0.2-3.2-0.3 -0.2 0-0.4-0.1-0.5-0.3 0.2 0 0.4 0.1 0.6 0.1 1.6 0.1 3.3 0.3 4.9 0.4 0.9 0.1 1.8 0.2 2.7 0.3 1.3 0.1 2.6 0.2 3.9 0.3 1.3 0.1 2.7 0.3 4 0.4 1 0.1 2 0.2 3 0.3 1.3 0.1 2.6 0.2 3.9 0.3 1 0.1 1.9 0.2 2.9 0.3 1.9 0.2 3.8 0.4 5.7 0.6 1.7 0.2 3.5 0.4 5.2 0.5 0.3 0 0.7 0 1 0 0.1 0 0.2-0.1 0.3-0.2 0.1-0.1 0-0.4-0.2-0.4 -0.1 0-0.2-0.1-0.4-0.1 -0.7-0.1-1.5-0.2-2.2-0.2 -2.9-0.3-5.7-0.7-8.6-1 -2.5-0.3-5-0.6-7.5-0.8 -1.8-0.2-3.6-0.4-5.4-0.6 -1.9-0.2-3.7-0.4-5.6-0.6 -1.1-0.1-2.2-0.3-3.2-0.4 -0.5-0.1-0.9-0.1-1.4-0.1 -0.2 0-0.3-0.1-0.4-0.3 2.4 0.2 4.8 0.4 7.2 0.6 2.7 0.2 5.3 0.5 8 0.8 2.2 0.2 4.4 0.4 6.6 0.6 1.4 0.1 2.8 0.2 4.1 0.3 2.2 0.2 4.3 0.4 6.5 0.6 0.7 0.1 1.5 0.1 2.3 0.2 0.1 0 0.2 0 0.2-0.1 0.1 0 0.1-0.1 0.1-0.2 0-0.1 0-0.2-0.1-0.3 -0.5-0.1-1.1-0.2-1.6-0.2 -2-0.2-3.9-0.4-5.9-0.6 -1.1-0.1-2.2-0.3-3.4-0.4 -1.1-0.1-2.2-0.2-3.2-0.3 -1.3-0.1-2.7-0.3-4-0.4 -0.9-0.1-1.7-0.2-2.6-0.3 -1.2-0.1-2.3-0.2-3.5-0.3 -0.9-0.1-1.7-0.2-2.6-0.3 -0.2 0-0.3-0.1-0.4-0.2 0.1 0 0.2 0 0.3 0.1 1.7 0.1 3.4 0.3 5.1 0.5 1.2 0.1 2.4 0.2 3.6 0.3 1.2 0.1 2.4 0.3 3.6 0.4 1 0.1 1.9 0.2 2.9 0.3 1.2 0.1 2.4 0.2 3.6 0.3 1.2 0.1 2.4 0.3 3.6 0.4 1.2 0.1 2.4 0.2 3.6 0.3 0.3 0 0.6 0 0.8 0 0.3-0.1 0.3-0.3 0.4-0.5 0.1-0.3 0.3-0.7 0.4-1.1 0-0.1-0.1-0.2-0.2-0.3 -0.1-0.1-0.3-0.1-0.5-0.1 -1.9-0.2-3.7-0.4-5.6-0.6 -1.9-0.2-3.8-0.4-5.7-0.6 -2-0.2-3.9-0.4-5.9-0.6 -1.2-0.1-2.3-0.2-3.5-0.4 -1-0.1-1.9-0.2-2.9-0.3 -2-0.2-4-0.4-6-0.6 -2-0.2-4-0.4-6-0.6s-4-0.4-6-0.6c-1.2-0.1-2.3-0.2-3.5-0.4 -0.9-0.1-1.8-0.2-2.7-0.3 -2-0.2-4-0.4-6-0.6 -1.2-0.1-2.3-0.3-3.5-0.4 -1.2-0.1-2.3-0.2-3.5-0.4 -0.2 0-0.3 0-0.5-0.2 0.2 0 0.3 0 0.5 0 0.5 0 1.1 0 1.6 0.1 0.3 0 0.6 0.1 0.9 0.1 2.3 0.2 4.5 0.4 6.8 0.6 2.2 0.2 4.4 0.4 6.6 0.7 2.2 0.2 4.5 0.4 6.8 0.6 2.2 0.2 4.3 0.4 6.5 0.6 1.2 0.1 2.5 0.2 3.8 0.3 1.4 0.1 2.8 0.3 4.1 0.4 1 0.1 1.9 0.2 2.9 0.3 1.3 0.1 2.6 0.2 3.9 0.3 1.3 0.1 2.7 0.3 4 0.4 1 0.1 2 0.2 3 0.3 1.3 0.1 2.7 0.2 4 0.3 1.4 0.1 2.7 0.3 4.1 0.4 1 0.1 2.1 0.2 3.1 0.3 0.1 0 0.2 0 0.3-0.1 0.3-0.3 0.6-0.7 1-1 0.4-0.3 0.8-0.7 1.2-1 0.2-0.2 0.5-0.4 0.7-0.5 1.7-1.2 1.7-1.2 3.6-1.5 0.8-0.1 1.6-0.4 2.4-0.6 0.1 0 0.3-0.1 0.5-0.3 -0.3-0.1-0.5-0.2-0.8-0.3 -3.3-1.3-6.5-2.8-9.6-4.3 -1.8-0.9-3.4-2.1-5-3.3 -0.4-0.3-0.7-0.7-1-1.2 -0.6-1.1-0.3-2.1 0.8-2.7 0.6-0.3 1.2-0.5 1.9-0.6 1.1-0.2 2.2-0.3 3.4-0.5 2-0.3 4-0.6 6-0.9 1.9-0.3 3.9-0.6 5.8-0.9 1.6-0.3 3.1-0.5 4.7-0.6 1.4-0.1 2.8 0 4.2 0.3 3.5 0.8 7 1.7 10.5 2.7 3.3 0.9 6.6 1.8 9.9 2.7 1.2 0.3 2.3 0.7 3.5 1.1 0.7 0.3 1.4 0.4 2.1 0.6 1 0.1 1.9 0.2 2.9 0.3 1.6 0.1 3.2 0.3 4.8 0.4 1.7 0.1 3.3 0.2 5 0.3 0.2 0 0.5 0 0.8 0 0.2 0 0.3-0.1 0.3-0.3 0.1-0.5 0.1-1.1 0.2-1.6 0.3-2.1 0.9-4.2 1.5-6.2 0.3-0.9 0.5-1.8 0.8-2.7 -0.1-0.3-0.3-0.4-0.5-0.4 -2-0.4-3.9-1.1-5.8-2.1 -3.6-1.8-6.9-4-10-6.7 -0.3-0.3-0.7-0.6-1-0.9 -2.4-2.2-4-5-4.9-8.1 -0.6-2-1-4-1.3-6 -0.3-2.6-0.4-5.3-0.1-7.9 0.4-4.3 1.5-8.5 2.9-12.6 0.3-0.9 0.7-1.7 1.3-2.5 0.4-0.6 0.9-1.1 1.4-1.6 0.5-0.4 1-0.8 1.5-1.1 1.3-0.9 2.7-1.5 4.3-1.6 2.3-0.3 4.5-0.1 6.7 0.6 0.6 0.2 1.3 0.4 2 0.6 0.1-0.2 0.2-0.3 0.2-0.4 0.2-0.8 0.3-1.6 0.4-2.5 0.2-1.1 0.4-2.2 0.6-3.3 0.2-1.2 0.7-2.2 1.6-3.1 0.1-0.1 0.2-0.2 0.3-0.4 0 0 0-0.1 0-0.1 -0.1 0-0.1-0.1-0.2-0.1 -0.3 0.1-0.5 0.2-0.8 0.3 -0.6 0.3-1.3 0.5-1.9 0.5 -3.5 0.1-7-0.1-10.5-1 -0.6-0.2-1.1-0.3-1.7-0.6 -1.4-0.6-2.5-1.5-3-3.1 -0.3-0.1-0.7-0.2-1-0.4 -1-0.3-1.9-0.8-2.7-1.6 -0.5-0.5-1.1-1.1-1.6-1.6 -1.2-1.3-1.8-2.9-1.9-4.7 -0.3-2.9 0.2-5.7 1.2-8.4 0.3-0.9 0.7-1.8 1.1-2.7 0.2-0.6 0.5-1.2 0.7-1.7 0.1-0.3 0.2-0.7 0.3-1.1 0.1-1.2 0.2-2.5 0.3-3.8 0.2-1.8 0-3.5-0.1-5.3 -0.2-2.9-0.4-5.9-0.1-8.8 0.1-0.7 0.1-1.3 0.3-2 0.5-2.4 1.3-4.8 2.5-6.9 0.7-1.2 1.4-2.4 2.1-3.6 2.6-4 5.8-7.3 9.8-10 0.7-0.5 1.4-0.9 2.2-1.2 0.4-0.2 0.7-0.5 1-0.9 1.8-3 4.3-5.1 7.6-6.3 1.7-0.7 3.5-0.8 5.3-0.5 0.9 0.2 1.7 0.3 2.6 0.6 0.2 0.1 0.4 0.1 0.6 0.2 0-0.2-0.1-0.3-0.2-0.4 -1.7-1.5-3.7-2.6-5.7-3.6 -1.2-0.6-2.5-1-3.7-1.5 -1.8-0.6-3.6-0.8-5.4-0.6 -0.9 0.1-1.7 0.2-2.6 0.6 0 0-0.1 0-0.1-0.1 0-0.1-0.1-0.2 0-0.2 0.1-0.3 0.4-0.5 0.7-0.7 2-1.2 4.2-1.9 6.6-1.5 0.6 0.1 1.1 0.2 1.7 0.4 3.2 1 6.1 2.4 8.8 4.4 1.3 1 2.6 1.9 3.9 2.9 0.7 0.5 1.4 1.1 2.1 1.6 1.1 0.7 1.9 1.6 2.7 2.6 0.3 0.3 0.5 0.7 0.7 1.1 0.2 0.4 0.4 0.8 0.6 1.3 0.3 0.1 0.6 0.3 0.9 0.4 0.9 0.4 1.8 0.8 2.7 1.1 2.2 1 4.2 2.3 6 4 1.5 1.4 2.9 3 4.1 4.7 0.3 0.4 0.5 0.9 0.8 1.3 0.2 0.3 0.4 0.4 0.7 0.5 0.8 0.1 1.5 0.1 2.3 0.2 1 0.1 2.1 0.2 3.1 0.4 0.7 0.1 1.4 0.4 2 0.7 0.6 0.3 1.3 0.7 1.9 1 1.3 0.8 2.6 1.7 3.9 2.5 1.4 0.9 2.8 1.8 4.2 2.7 0.8 0.5 1.7 1 2.6 1.3 0.3 0.1 0.7 0.3 1 0.5 0.4 0.3 0.8 0.6 1 1.1 0.5 1 0.4 2-0.4 2.8 -0.2 0.2-0.5 0.5-0.8 0.6 -1.2 0.8-2.4 1.6-3.6 2.4 -1.1 0.7-2.3 1.1-3.5 1.4 -1.9 0.4-3.8 0.7-5.7 0.8 -1.7 0.1-3.3 0.2-5 0 -0.2 0-0.3 0-0.4 0 -0.3 0.2-0.3 0.5-0.3 0.7 -0.1 2-0.6 4-1.1 5.9 -0.4 1.7-0.8 3.5-1.3 5.2 -0.2 0.9-0.5 1.9-0.7 2.8 -0.3 1.3-0.6 2.6-0.9 3.9 -0.1 0.4-0.1 0.8-0.1 1.2 0 1.5 0.2 2.9 0.4 4.4 0.2 1.3 0.1 2.5-0.4 3.7 -0.2 0.4-0.4 0.8-0.6 1.2 -0.9 1.5-1.9 2.9-3.1 4.2 -0.6 0.6-1.2 1.1-1.9 1.6 -0.2 0.1-0.4 0.3-0.5 0.4 -0.1 0.3 0 0.5 0.1 0.6 0.1 0.2 0.2 0.4 0.3 0.5 0.3 0.2 0.5 0.1 0.8 0.1 1.8-0.1 3.6 0 5.4 0 0.2 0 0.3 0 0.5 0 0.9 0.1 1.7 0.3 2.5 0.8 1.6 1.1 3.1 2.3 4.2 3.9 0.6 0.9 1.2 1.8 1.8 2.7 0.6 0.9 1.2 1.9 1.8 2.9 0.5 0.7 1.1 1.4 1.8 2 1.7 1.4 3.4 2.7 5.5 3.5 0.3 0.1 0.5 0.2 0.8 0.3 0.2-0.2 0.4-0.4 0.6-0.5 0.7-0.6 1.5-0.9 2.4-0.9 0.8-0.1 1.7 0.1 2.5 0.3 0.2 0.1 0.5 0.1 0.8 0.2 1.1-0.7 2.2-1.4 3.2-2.2 1-0.7 1.6-1.6 1.8-2.7 0.3-1.6 0.7-3.1 0.8-4.7 0.2-2 0.2-3.9 0-5.9 -0.1-1.1-0.1-2.2 0-3.4 0.4-4.2 1.7-8.2 3.6-12 1-2.1 2.2-4.1 3.6-6.1 0.1-0.2 0.3-0.4 0.4-0.7 -0.2 0-0.3 0-0.4 0 -0.3 0.2-0.6 0.3-0.9 0.5 -7.3 4.6-14.5 9.2-21.8 13.8 -0.3 0.2-0.6 0.4-1 0.6 -0.1 0-0.2 0-0.3 0 0-0.2 0.2-0.3 0.4-0.4 1-0.7 2-1.3 3-2 7.1-4.7 14.2-9.3 21.3-14 0.7-0.4 1.3-0.9 1.8-1.6 0.5-0.5 1-1 1.5-1.5 0.3-0.3 0.7-0.5 1.2-0.7 1-0.4 1.8-0.2 2.6 0.5 0.7 0.6 1 1.5 1.1 2.4 0.1 0.7-0.6 1.2-1.2 1.1 -0.3-0.1-0.6-0.2-0.9-0.4 -0.3-0.2-0.7-0.5-1-0.6 -0.3 0-0.5 0.2-0.6 0.4 -2.2 3.2-4.1 6.5-5.1 10.3 -0.3 1.1-0.5 2.1-0.6 3.2 -0.1 1.9-0.2 3.8 0 5.8 0.1 1 0.2 2 0.4 3 0.2 1.3 0.5 2.5 0.8 3.8 0.7 2.7 0.7 5.3-0.2 7.9 -0.5 1.5-1.2 3-2.1 4.4 -0.5 0.7-1 1.5-1.5 2.2 -0.7 1-1.5 1.8-2.5 2.4 -0.8 0.6-1.7 1.1-2.5 1.7 -0.3 0.2-0.5 0.4-0.8 0.6 0 0.4 0 0.9 0 1.3 0 1-0.2 2-0.7 2.9 -1 1.9-2.4 3.3-4.4 4.2 -0.8 0.3-1.6 0.6-2.5 0.8 -0.4 0.1-0.7 0.3-0.8 0.7 -0.4 1-0.8 2-1.2 3 -0.3 0.7-0.4 1.4-0.5 2.2 -0.1 1.6-0.6 3.1-1.4 4.5 -1.5 2.5-3.4 4.7-5.7 6.5 -1.6 1.2-3.4 2-5.3 2.5 -0.6 0.2-1.3 0.3-2 0.3 -0.2 0-0.4 0.1-0.6 0.1 -0.5 0.8-1 1.6-1.6 2.4 -1.2 1.8-2.9 3.1-4.8 4.1 -1 0.5-2 0.9-3 1.3 -0.3 0.1-0.7 0.3-1 0.5 0 0.3 0 0.5 0 0.7 0 1.2 0 2.3 0 3.5 0 2.7 0.5 5.4 1.5 8 0.3 0.8 0.5 1.7 0.6 2.6 0 0.6 0.1 1.2 0.2 1.8 0.2 0 0.3 0.1 0.5 0.1 0.5 0.1 0.9 0.1 1.4 0.1 2.4 0.1 4.9 0.2 7.3 0.3 1.2 0 2.3-0.1 3.5-0.1 0.6 0 1.2-0.1 1.8-0.1 4.1-0.1 8.1-0.1 12.2 0 2.2 0.1 4.4 0.2 6.6 0.4 1.8 0.1 3.5 0.2 5.3 0.4 1.5 0.1 2.9 0.2 4.4 0.5 0.5 0.1 0.9 0.2 1.3 0.3 0.4 0.1 0.7 0.3 1 0.5 0.8 0.5 1 1.2 0.6 2.1 -0.3 0.6-0.7 1.1-1.2 1.6 -0.8 0.7-1.6 1.3-2.6 1.8 -0.7 0.4-1.5 0.7-2.3 1 -2.5 0.9-5 1.7-7.6 2.2 -1.3 0.3-2.6 0.4-3.9 0.6 -0.2 0.2-0.2 0.4-0.2 0.6 0 0.8-0.1 1.5-0.1 2.3 0 0.2 0 0.5-0.1 0.7 -0.5 1.4-1.1 2.7-2.1 3.8 -0.5 0.6-1.1 1-1.8 1.4 -0.3 0.2-0.6 0.2-0.8 0.6 0 0 0.1 0.1 0.1 0.1 0.7 0.1 1.5 0.2 2.2 0.3 1.4 0.2 2.8 0.3 4.2 0.4 1 0.1 1.9 0.2 2.9 0.3 2.4 0.2 4.8 0.5 7.2 0.7 2 0.2 4.1 0.4 6.1 0.6 2 0.2 4 0.4 6 0.6 1.2 0.1 2.3 0.2 3.5 0.3C218.1 180.6 220.2 180.7 222.4 181.2zM209.8 55.8c-0.1-0.5-0.2-0.7-0.5-0.9 -0.3-0.2-0.7-0.3-1.1-0.2 -0.1 0.1-0.3 0.1-0.2 0.3 0.3 0.1 0.6 0.1 0.8 0.2C209.1 55.4 209.4 55.5 209.8 55.8zM206.3 57.2c0.1-0.2 0.3-0.3 0.2-0.5 -0.1 0-0.2 0-0.2 0 -0.4 0.2-0.7 0.4-1.1 0.6 -0.5 0.3-0.9 0.7-1.3 1.2 -0.5 0.7-1 1.3-1.4 2.1 -2.2 4-3.8 8.3-5.1 12.7 -0.6 2.2-1 4.5-0.6 6.8 0.1 0.6 0.3 1.2 0.4 1.8 0.5 2.1 0.6 4.3 0.2 6.5 -0.3 1.7-0.7 3.4-1.1 5 -0.4 1.6-1.4 2.9-2.7 3.8 -0.4 0.3-0.8 0.6-1.3 0.8 -0.2 0.1-0.3 0.2-0.5 0.4 0.3 0.4 0.5 0.8 0.7 1.2 0.1 0.2 0.2 0.3 0.4 0.2 0.8-0.5 1.6-1.1 2.3-1.8 1.9-1.9 3.6-4.1 4.8-6.5 1.1-2.2 1.5-4.5 1.3-6.9 0-0.4-0.1-0.7-0.2-1.1 -0.7-3-0.7-6.1-0.5-9.2 0.1-2.2 0.6-4.4 1-6.6 0.6-2.7 1.6-5.3 3-7.7C205.3 59 205.8 58.1 206.3 57.2zM204.9 159.6c-0.1-0.1-0.2-0.3-0.3-0.3 -0.4-0.1-0.7-0.2-1.1-0.3 -1.2-0.3-2.5-0.4-3.7-0.4 -3.5-0.2-6.9-0.4-10.4-0.5 -4.8-0.2-9.6-0.2-14.4-0.1 -0.9 0-1.8 0.1-2.6 0.1 -1.3 0-2.5 0.1-3.8 0 -2.5-0.1-4.9-0.4-7.4-0.6 -0.2 0-0.5 0-0.8 0 -0.1 0.4-0.2 0.8-0.2 1.1 -0.2 1.5-0.9 2.8-2.1 3.7 -1.6 1.2-3.4 2-5.4 2 -2.4 0.1-4.8-0.2-6.9-1.4 -0.6 0.2-1.1 0.5-1.6 0.6 -2.2 0.7-4.4 1.2-6.7 1.1 -0.5 0-1 0-1.7 0.1 1.7 0.2 3.2 0.3 4.7 0.4 1.8 0.2 3.6 0.3 5.4 0.5 1.5 0.1 3 0.2 4.5 0.3 2.6 0.2 5.2 0.3 7.8 0.4 4.6 0.1 9.1 0.1 13.7-0.2 3-0.1 5.9-0.3 8.9-0.5 2.5-0.2 5-0.5 7.5-0.9 2.9-0.4 5.7-0.9 8.5-1.5 1.6-0.3 3.1-0.7 4.6-1.2 1.2-0.4 2.3-1.1 3.2-2C204.6 160 204.8 159.8 204.9 159.6zM189.9 105.7c0.6-1 0.7-2 0.4-3 -0.1-0.4-0.2-0.7-0.4-1.1 -0.6-1.4-1.7-2.1-3.2-2.2 -0.5 0-0.9 0.1-1.2 0.5 -0.2 0.2-0.4 0.4-0.7 0.6 -0.7 0.5-1.3 1.1-1.8 1.8 -0.5 0.7-1 1.3-1.5 2 -0.1 0.1-0.2 0.2-0.3 0.4 -0.1-0.1-0.1-0.1-0.1-0.1 0.1-1.5 0.9-2.9 1.1-4.4 -0.2-0.1-0.4-0.2-0.7-0.3 -2.3-0.8-4.3-2.2-6.2-3.7 -0.9-0.8-1.7-1.6-2.4-2.6 -0.7-1-1.3-2-2-3.1 -0.6-0.9-1.2-1.8-1.8-2.7 -0.8-1.1-1.8-1.9-2.8-2.7 -0.6-0.4-1.2-0.6-1.9-0.7 -0.4 0-0.8-0.1-1.1-0.1 -1.4-0.1-2.8-0.1-4.1-0.2 -0.2 0-0.4 0.1-0.6 0.1 -0.1 0.7 0.1 1.4 0.2 2.1 0.2 1.7-0.1 3.3-1 4.7 -0.8 1.3-2 2-3.6 2 -0.7 0-1.3-0.2-2-0.4 -0.6-0.1-1.1-0.3-1.7-0.5 -0.3-0.1-0.5 0-0.7 0.1 -0.2 0.2-0.5 0.3-0.7 0.5 -0.8 0.7-1.7 1.4-2.5 2.1 -0.9 0.8-2 1.4-3.1 1.8 -0.8 0.3-1.6 0.7-2.4 1 -0.3 0.1-0.7 0.3-1.1 0.4 -0.7 0.3-1.4 0.4-2.2 0.4 -1.1 0-2.2-0.1-3.3 0 -1.6 0-3.1-0.3-4.6-0.7 -0.3-0.1-0.6-0.2-0.9-0.4 -0.8-0.5-1.5-1-2.2-1.6 -0.5-0.5-0.9-1.1-1.6-1.4 -0.6-0.3-1.4-0.4-2.1-0.5 0 0-0.1 0-0.1 0 -1.6-0.3-3.1-0.5-4.7-0.1 -0.9 0.3-1.8 0.5-2.7 0.9 -1 0.3-1.8 0.9-2.5 1.7 -0.5 0.6-0.9 1.2-1.2 1.9 -1.2 2.4-2 4.9-2.7 7.4 -0.4 1.3-0.7 2.7-0.9 4 -0.3 2.3-0.3 4.6-0.1 6.9 0.2 2.4 0.8 4.8 1.6 7.1 0.5 1.5 1.2 2.9 2.1 4.1 1.2 1.7 2.5 3.2 4 4.5 1.9 1.7 4 3.3 6.2 4.7 3.3 2.3 7.1 3.3 11.1 3.7 1.5 0.1 3 0.1 4.5 0.2 1.9 0.1 3.9-0.1 5.8-0.2 0.2 0 0.4-0.1 0.6-0.1 0.1-0.4 0.3-0.8 0.4-1.2 1.1-4 2.1-8 3.2-12 0.7-2.6 1.4-5.2 2.1-7.8l0.4 0.1c-1.2 4.6-2.4 9.3-3.6 13.9 -0.6 2.2-1.1 4.4-1.7 6.6 0 0.2-0.1 0.4 0 0.6 0 0 0.1 0 0.1 0 0.2-0.2 0.3-0.4 0.5-0.6 1.7-2.4 3.5-4.7 5.5-6.8 2.1-2.3 4.5-4.2 7.1-5.9 2.3-1.5 4.7-2.6 7.3-3.2 0.4-0.1 0.8-0.2 1.2-0.3 0.1 0 0.3-0.2 0.5-0.3 -0.1-0.5-0.2-0.9-0.3-1.4 -0.5-1.9-1-3.8-1.3-5.7 -0.3-1.7-0.6-3.5-0.7-5.2 -0.1-1.6-0.3-3.2-0.6-4.9 -0.7-3.5-1.7-7-2.7-10.5 -0.1-0.4-0.2-0.7-0.3-1.1 -0.1-0.2-0.1-0.5-0.1-0.7 0-0.3-0.1-0.6-0.2-0.9 -0.1-0.2-0.3-0.4-0.2-0.7 0.2 0 0.3 0 0.5 0 0.2 0.1 0.5 0.2 0.7 0.4 0.6 0.5 1.3 0.9 2.1 1.2 0.9 0.4 1.6 0.9 2.1 1.7 0.2 0.3 0.4 0.6 0.6 0.9 1.7 2.6 3.7 4.9 5.9 7.1 1 1 2.1 1.8 3.4 2.4 1.4 0.7 2.9 1.5 4.4 2.2 0.6 0.3 1.2 0.5 1.8 0.5 1.9 0.1 3.8-0.2 5.5-1C188.5 107.4 189.3 106.6 189.9 105.7zM186.4 168.7c0.2-0.8-0.1-1-0.7-0.8 -0.2 0.1-0.4 0-0.6 0.2 -0.1 0.3-0.2 0.7-0.3 1 -0.5 1.6-1.2 3-2.4 4.2 -0.4 0.5-0.9 0.9-1.3 1.3 -0.1 0.1-0.3 0.3-0.5 0.4 0 0 0 0.1 0 0.2 0 0 0 0 0 0 0 0 0 0 0 0 -0.1 0-0.1-0.1-0.2 0.1 0.1 0 0.1-0.1 0.2-0.1 0 0 0 0 0.1 0 0 0 0 0 0 0 1.6-0.4 2.9-1.3 3.9-2.5C185.4 171.6 186 170.2 186.4 168.7zM185.4 38.3c0.1-0.1 0.2-0.2 0.4-0.4 -0.2-0.2-0.4-0.3-0.6-0.4 -1.8-0.7-3.4-1.8-5-2.8 -1.4-0.9-2.9-1.9-4.3-2.8 -1.1-0.7-2.1-1.3-3.2-1.9 -0.7-0.4-1.4-0.7-2.2-0.8 -2-0.4-4-0.6-6-0.8 -0.5 0-1 0.1-1.4 0.3 -0.5 0.3-1 0.5-1.5 0.8 -0.1-0.1-0.1-0.2-0.1-0.2 0-0.4 0.1-0.7 0.1-1.1 0-0.6 0.7-0.9 0.9-1.5 -0.2-0.2-0.3-0.4-0.4-0.7 -0.9-1.2-1.9-2.4-2.9-3.4 -1.7-1.7-3.6-3.1-5.8-4.1 -1.6-0.7-3.2-1.4-4.9-2 -0.9-0.3-1.7-0.6-2.6-0.8 -2.4-0.5-4.9-0.8-7.3-1 -0.8 0-1.6-0.1-2.4 0 -1.9 0.2-3.8 0.5-5.7 1 -1.3 0.3-2.5 0.7-3.7 1.2 -0.3 0.1-0.6 0.4-0.6 0.7 -0.1 1-0.1 2 0.1 3 0.4 1.4 1 2.7 1.9 3.9 1 1.5 2.1 2.9 3.2 4.2 0.4 0.4 0.7 0.8 1.1 1.2 0.2 0.2 0.5 0.4 0.8 0.6 0.7 0.4 1.4 0.6 2.1 0.2 0.1 0 0.1-0.1 0.2-0.1 0.1 0 0.2 0 0.4 0 -0.5 0.5-1 0.9-1.7 0.9 -0.8 0.1-1.5-0.1-2.2-0.5 -0.2-0.1-0.4-0.3-0.6-0.4 -0.5-0.4-1-0.8-1.4-1.3 -1.3-1.3-2.5-2.6-3.6-4.1 -0.4-0.5-0.7-0.9-1-1.4 -1-1.5-1.6-3.2-1.8-5 0-0.1-0.1-0.2-0.1-0.3 -0.2 0.1-0.3 0.1-0.5 0.2 -1.5 1-2.9 2.1-4.2 3.4 -2.2 2.2-4.3 4.6-5.8 7.4 -0.2 0.3-0.3 0.6-0.5 0.9 -1.2 2-2 4.1-2.6 6.4 -0.1 0.2-0.1 0.5-0.1 0.7 0 0.3-0.2 0.5-0.1 0.9 0.2-0.3 0.4-0.5 0.6-0.7 0.6-0.7 1.2-1.3 2-1.7 0.5-0.3 1-0.5 1.5-0.6 0.8 0 1.5 0 2.2 0.2 1.8 0.5 3.3 1.4 4.8 2.5 0.4 0.3 0.7 0.8 1 1.3 0.6 1.2 0.8 2.4 1.1 3.7 0 0.3-0.1 0.6-0.1 0.9 0 0-0.1 0-0.1 0 0 0-0.1 0-0.1 0 -0.1-0.4-0.3-0.8-0.3-1.2 -0.2-1-0.5-1.9-0.9-2.9 -0.3-0.7-0.7-1.2-1.4-1.6 -0.8-0.4-1.6-0.9-2.5-1.2 -1.8-0.7-3.4-0.3-4.7 1 -0.7 0.7-1.2 1.5-1.6 2.4 -0.5 1.2-0.9 2.4-1.2 3.7 0 0.1 0 0.3 0.1 0.5 0.2-0.1 0.4-0.1 0.5-0.2 0.8-0.3 1.5-0.1 2.1 0.4 0.4 0.3 0.7 0.7 1 1.1 0.4 0.8 0.7 1.7 0.8 2.6 0.3 2.9 0.1 5.7-0.4 8.5 -0.1 0.9-0.4 1.7-0.6 2.6 -0.1 0.4-0.2 0.7-0.4 1 -0.9 1.5-2.9 1.7-4.1 0.4 -0.2-0.2-0.3-0.4-0.5-0.6 -0.1-0.1-0.2-0.1-0.3-0.2 -0.1 1.3-0.1 2.6-0.2 3.8 0 0.5 0 0.9 0.1 1.4 0.2 1.6 1.1 2.7 2.3 3.6 0.3 0.2 0.8 0.4 1.2 0.4 1 0 2.1-0.1 3.1-0.1 0.2 0 0.5-0.1 0.7-0.2 0.2-0.4 0.1-0.9 0.3-1.2 0.5-0.9 1.4-2.1 2.4-2 1.2 0.1 2.7 0.1 3.9 0.4 1 0.2 2.4 1.4 3 2.1 0.5 0.6-0.4 1.9-0.9 2.5 -0.1 0.1-0.2 0.3-0.3 0.4 0.1 0.1 0.1 0.2 0.2 0.2 1 0.3 1.8 0.9 2.5 1.6 0.5 0.5 1.1 0.6 1.7 0.5 0.1 0 0.2-0.1 0.4-0.1 0.7-0.1 1.2 0.4 1.3 1 0.1 0.6 0.1 1.2-0.2 1.7 -0.3 0.7-0.8 1.2-1.5 1.4 -0.4 0.1-0.8 0.2-1.3 0.2 -0.2 0-0.3 0-0.5 0 -0.8-0.1-1.6-0.1-2.4-0.2 -1.3-0.2-2.6-0.3-3.9-0.8 -0.8-0.3-1.7-0.4-2.6-0.6 -0.4-0.1-0.8-0.1-1.3 0 -0.6 0.1-1.1 0.3-1.7 0.4 -0.6 0.1-1.1 0.1-1.7 0.2 0.1 0.3 0.1 0.6 0.2 0.9 0.1 0.4 0.3 0.8 0.6 1.1 0.3 0.2 0.6 0.5 1 0.6 0.5 0.2 1.1 0.4 1.7 0.5 2.6 0.7 5.3 0.9 8 0.9 0.4 0 0.8 0 1.3 0 1.1 0 1.9-0.5 2.6-1.3 0.1-0.2 0.2-0.3 0.4-0.5 0 0 0.1 0 0.2 0 0.1 0.2-0.1 0.5 0.1 0.8 0.1 0 0.3 0 0.5 0 0.7 0 1.4-0.1 2.1 0 0.6 0.1 1.1 0 1.7-0.3 0.4-0.2 0.8-0.4 1.3-0.5 1.8-0.4 3.7-0.4 5.4 0.2 0.4 0.1 0.8 0.2 1.2 0.4 0.6 0.3 1.3 0.4 2 0.3 0.3 0 0.6-0.1 0.9-0.1 0.5 0 1-0.2 1.4-0.5 0.8-0.6 1.6-1 2.5-1.4 0.5-0.2 1-0.4 1.5-0.6 0.6-0.2 1.3-0.4 2-0.4 0.8 0 1.5 0.1 2.2 0.4 0.7 0.3 1.3 0.2 1.9-0.1 0.7-0.3 1.3-0.8 1.8-1.3 0.1-0.1 0.2-0.2 0.3-0.4 -0.2-0.2-0.4-0.5-0.6-0.7 -0.2-0.2-0.5-0.4-0.8-0.6 -0.2-0.2-0.5-0.4-0.7-0.6 -0.2-0.2-0.5-0.4-0.7-0.5 -0.2-0.2-0.5-0.4-0.7-0.5 -0.3-0.2-0.6-0.4-0.8-0.6 -0.2-0.2-0.5-0.2-0.6-0.6 0.2 0 0.3 0 0.4 0 0.7 0.2 1.4 0.5 2.1 0.7 1.1 0.4 2.1 0.9 2.9 1.7 0.1 0.1 0.3 0.3 0.5 0.3 0.9-0.9 1.3-1.6 1.7-2.8 -0.7-0.7-1.3-1.6-2.1-2.3 -0.8-0.7-1.7-1.3-2.5-2.1 0.1 0 0.1-0.1 0.2-0.1 1.7 0.7 3.5 1.4 5.2 2.1 0.3-0.2 0.4-0.5 0.5-0.8 0.4-1.3 0.9-2.6 1.1-4 -0.4-0.4-0.8-0.8-1.3-1.1 -1.7-1.3-3.4-2.6-5.1-3.9 -0.1-0.1-0.3-0.1-0.2-0.4 0.1 0 0.3 0 0.4 0.1 0.3 0.1 0.6 0.3 0.9 0.4 0.9 0.5 1.7 1 2.6 1.6 0.8 0.5 1.6 1 2.4 1.5 0.1 0.1 0.3 0.1 0.5 0 0.2-2.1 0.3-4.2 0.3-5.3 -0.6-0.6-1.3-1.1-2.1-1.5 -0.3-0.2-0.7-0.4-0.9-0.6 -0.7-0.7-1.5-1.3-2.2-1.8 -0.1-0.1-0.2-0.2-0.3-0.4 0.3-0.2 0.5-0.1 0.8 0 0.6 0.1 1.2 0.3 1.8 0.5 0.8 0.2 1.5 0.5 2.2 0.9 0.3 0.2 0.5 0.4 0.8 0.6 0.1 0.1 0.2 0.1 0.4 0.1 0.3-1 0.5-2 0.7-2.9 0-0.1 0-0.2 0-0.4 -0.3-0.2-0.6-0.4-0.9-0.7 -1.1-0.8-2.3-1.5-3.5-2.3 -0.6-0.4-1.1-0.7-1.7-1.1 -0.1-0.1-0.2-0.2-0.3-0.2 0 0-0.1-0.1 0-0.1 0-0.1 0.1-0.1 0.2-0.1 0.5 0 1 0.2 1.4 0.5 1.3 0.7 2.6 1.4 3.9 2 0.4 0.2 0.8 0.4 1.3 0.6 0.5-1.1 0.6-2.2 0.8-3.3 0.1-0.5 0.2-1 0-1.5 -0.6-0.4-1.3-0.9-2-1.3 -1.4-0.8-2.7-1.8-4.1-2.7 0 0 0-0.1 0-0.3 0.4 0.1 0.8 0.2 1.2 0.3 0.4 0.1 0.7 0.2 1.1 0.3 0.4 0.1 0.8 0.2 1.2 0.3 0.4 0.1 0.7 0.4 1.2 0.4 -0.1-0.2-0.1-0.3-0.2-0.3 -0.5-0.5-0.8-1.1-1-1.7 -0.4-1.2-0.7-2.5-1.1-3.7 0-0.1 0-0.3 0-0.5 0.5 0.4 0.8 0.8 1 1.2 1 1.5 2.5 2.5 3.9 3.7 0 0 0.1 0 0.1 0.1 0.3 0.2 0.7 0.3 1.1 0.3 0.5 0 0.9 0.1 1.3 0.3 0.2 0.1 0.4 0.2 0.7 0.1 0-0.6-0.1-1.2-0.3-1.8 -0.2-0.6-0.3-1.1-0.4-1.7 -0.1-0.6-0.4-1.2-0.3-1.8 0.3 0.2 0.4 0.4 0.5 0.6 0.6 1.4 1.2 2.8 1.8 4.1 0.1 0.3 0.1 0.6 0.5 0.8 1 0.1 2 0.1 3-0.1 0.1 0 0.1-0.1 0.2-0.2 -0.2-1-0.7-1.9-1.1-2.8v0c0.1 0 0.3 0 0.3 0 0.2 0.1 0.3 0.3 0.4 0.5 0.6 0.8 1.1 1.6 1.7 2.4 0.8 0.1 1.6-0.2 2.4-0.3 0.1 0 0.2-0.1 0.3-0.2 0 0 0-0.1 0.1-0.2 -0.1-0.2-0.3-0.5-0.4-0.7 -0.2-0.2-0.3-0.5-0.5-0.7 -0.1-0.2-0.3-0.4-0.4-0.6 -0.2-0.2-0.4-0.5-0.5-0.7 -0.1-0.2-0.5-0.4-0.3-0.8 0.1 0.1 0.2 0.1 0.3 0.2 0.8 0.8 1.6 1.7 2.4 2.5 0.7 0.8 0.7 0.9 1.8 0.5 0.2-0.1 0.5-0.2 0.7-0.3C182.9 39.9 184.1 39.1 185.4 38.3zM183.5 168.5c0-0.1-0.1-0.1-0.1-0.2 -1-0.1-1.5-0.1-2.5 0.2 0 0.2-0.1 0.3-0.1 0.4 -0.1 1.1-0.6 1.9-1.7 2.3 -0.4 0.2-0.7 0.5-0.9 0.8 -1.3 1.6-2.1 1.8-4.1 1.4 -0.2 0-0.5-0.1-0.8-0.2 0.4 0.7 0.9 1.1 1.6 1.2 0.5 0.1 1.1 0.1 1.6 0.1 0.5 0 1.1-0.1 1.6-0.1 0.8 0 1.6-0.3 2.2-0.8 0.4-0.3 0.8-0.6 1.1-1C182.5 171.5 183.2 170.1 183.5 168.5zM182.9 112.4c0.1-0.2 0.1-0.4 0.2-0.6 -0.4-0.1-0.8-0.1-1.2-0.2 -0.4 0-0.8-0.3-1.1-0.1 -0.4 0.2-0.2 0.8-0.4 1.1 -0.1 0.1-0.1 0.3-0.1 0.5 -0.3 1.4-0.7 2.9-1 4.3 -0.4 1.5-1.2 2.7-2.5 3.5 -1.7 1.1-3.3 2.2-5.1 3.2 -1.3 0.7-2.7 1.2-4.2 1.5 -1 0.1-1.9 0.3-2.9 0.4 -1.4 0.2-2.8 0.6-4.1 1.2 -1 0.5-2 1.1-3 1.8 -2.4 1.7-4.7 3.6-6.8 5.6 -1.2 1.1-2.3 2.2-3.3 3.4 -1.3 1.5-2.3 3.2-3 5 -0.4 0.8-0.4 1.7-0.2 2.6 0 0.1 0.1 0.1 0.2 0.2 0-0.1 0.1-0.1 0.1-0.2 -0.2-0.7 0-1.3 0.3-1.9 0.2-0.3 0.3-0.6 0.5-0.8 1.6-2.1 3.4-4 5.4-5.8 0.2-0.2 0.5-0.4 0.7-0.5 2.6-1.9 5.4-3.6 8.3-4.9 2.9-1.3 5.9-2.3 9-2.6 2.4-0.3 4.4-1.2 6.2-2.7 1.2-1 2.2-2.1 3.1-3.3 0.9-1.2 1.6-2.4 2.3-3.7 0.4-0.9 0.8-1.7 1-2.7 0.1-0.7 0.3-1.3 0.6-1.9C182.2 114 182.6 113.2 182.9 112.4zM178.9 169.4c0.3-0.2 0.3-0.4 0.3-0.6 0-0.1-0.1-0.2-0.2-0.3 -0.1 0-0.2 0-0.2 0 -0.1 0.1-0.2 0.2-0.1 0.3C178.6 169.1 178.7 169.3 178.9 169.4zM177.9 111.1c0.1-0.2 0.1-0.5 0.1-0.8 -0.6-0.2-1.1-0.4-1.5-0.5 -1.4-0.3-2.6-1-3.7-1.7 -1.3-0.9-2.5-1.9-3.5-3 -1.3-1.4-2.6-2.9-3.7-4.4 -0.1-0.1-0.2-0.3-0.5-0.3 0.2 0.7 0.3 1.5 0.5 2.2 0.8 3 1.3 6.1 1.4 9.3 0 1 0.2 2 0.3 3 0.4 2.4 1 4.8 1.7 7.2 0.1 0.2 0.2 0.4 0.3 0.6 0.3-0.1 0.5-0.1 0.7-0.2 1.5-0.6 2.9-1.5 4.3-2.4 1.1-0.6 1.8-1.6 2.1-2.8C176.9 115.1 177.5 113.1 177.9 111.1zM176.7 170.6c0.2-0.2 0.1-0.5 0-0.7 -0.3-0.6-0.9-1-1.6-1 -0.2 0-0.4 0-0.6 0 -1.9 0.1-3.7 0.2-5.6 0.3 -1.7 0.1-3.5 0.2-5.2 0.3 -0.1 0-0.3 0-0.4 0 -0.1 0-0.2 0.1-0.3 0.2 0.4 0.6 0.7 1.3 1.1 2 0.5-0.1 0.8-0.2 1.2-0.2 0.6-0.1 1.2 0 1.6 0.4 0.2 0.2 0.5 0.4 0.7 0.5 0.5 0.3 1 0.5 1.5 0.6 0.5 0.1 1 0 1.3-0.6 0-0.1 0.1-0.2 0.1-0.2 0.1-0.1 0.2-0.3 0.4-0.3 0.3-0.1 0.7-0.1 1-0.1 0.8 0 1.6 0 2.4 0 0.3 0 0.7 0 1 0 0.4 0 0.7-0.2 0.9-0.4C176.3 171.1 176.5 170.9 176.7 170.6zM172.6 175.8c0-0.1 0-0.2 0-0.3 -0.2-0.3-0.3-0.7-0.7-0.9 -0.5 0.3-0.9 0.5-1.2 0.7 -0.1 0.1-0.2 0.1-0.2 0.3 0 0.1 0.1 0.1 0.2 0.1 0.5 0 1 0.1 1.5 0.1C172.3 175.8 172.5 175.8 172.6 175.8zM166 175.2c0.4 0 0.9 0.1 1.4-0.1 -0.9-0.4-1.6-1-2.1-1.7 -0.1-0.1-0.2-0.1-0.3-0.2 0 0-0.2 0.1-0.2 0.1 -0.1 0.3 0.1 0.6 0.1 0.8C165 175.1 165.2 175.2 166 175.2zM165.2 131.7c-0.1 0-0.2-0.1-0.3-0.1 -1.1 0.2-2.2 0.4-3.3 0.7 -2.9 0.8-5.8 1.9-8.3 3.8 -1 0.8-2.1 1.5-3 2.5 -0.2 0.2-0.4 0.3-0.5 0.7 0.2 0 0.4 0 0.5 0 0.4-0.1 0.9-0.2 1.3-0.4 3.2-0.9 6.2-2.2 9.2-3.5 1-0.4 1.8-1 2.6-1.7C164.3 133.2 164.8 132.5 165.2 131.7zM161.8 182c1.7-2 2.2-4.2 1.7-6.8 -0.2-1.2-0.7-2.3-1.2-3.4 -0.2-0.5-0.6-1-1-1.4 -1-0.9-0.6-0.8-2-0.8 -3.3-0.1-6.5-0.1-9.8-0.3 -0.2 0-0.5 0-0.8 0 -0.1 0-0.3 0-0.4 0.1 -0.4 0.2-0.8 0.4-1.1 0.9 0.3 0 0.4 0 0.6 0 0.5-0.2 1.1-0.2 1.6-0.2 2.1-0.1 4.2 0.2 6.2 0.9 1.5 0.5 2.6 1.5 3.3 2.9 0.9 1.7 1.4 3.5 1.6 5.4 0.1 0.5 0 1.1 0 1.6 -0.1 0.9-0.4 1.7-0.7 2.5 0 0.1 0 0.2 0 0.4 0.3-0.1 0.5-0.2 0.6-0.3C160.9 182.9 161.4 182.5 161.8 182zM157.7 182.6c0.9-1.2 1.1-2.5 0.9-3.9 -0.2-1.4-0.6-2.7-1.1-4 -0.4-1.1-1.1-1.8-2.2-2.3 -1.9-0.9-3.8-1.4-6-1.5 -0.3 0-0.8 0.1-1.3 0.1 -0.2 0-0.4 0.1-0.6 0.1 -2.7 1-4.4 3.9-4.1 6.4 0.2 1.3 0.5 2.6 1.1 3.8 0.4 0.9 1 1.6 1.8 2.3 2.2 1.8 4.6 2.4 7.4 1.9 1.2-0.2 2.1-0.7 2.9-1.6C157 183.5 157.3 183.1 157.7 182.6zM157.7 157.7c0-0.5 0-1.1 0-1.6 0-1.2-0.2-2.3-0.7-3.4 -0.8-2-1.3-4-1.6-6.2 -0.1-0.5-0.2-1-0.3-1.6 -0.7 0.1-1.3 0.2-1.9 0.3 -0.6 0.1-1.2 0.2-1.7 0.2 -0.6 0-1.2 0-1.8 0 -0.6 0-1.2-0.1-1.8 0 -0.1 0.2-0.2 0.4-0.2 0.6 -0.3 1.1-0.6 2.3-0.9 3.4 -0.4 1.5-0.7 2.9-1.1 4.4 -0.2 0.9-0.3 1.7 0.1 2.5 0.1 0.1 0.1 0.2 0.1 0.4 0.4 1.2 0.9 2.4 1.2 3.7 0.1 0.3 0.3 0.5 0.5 0.6 0.2 0.1 0.5 0.2 0.7 0.3 1.4 0.3 2.9 0.5 4.4 0.4 1.4-0.1 2.6-0.6 3.7-1.4C157.2 159.6 157.6 158.7 157.7 157.7zM156.2 87.1c0.2-1.5-0.1-2.9-0.4-4.3 -0.2-1-0.9-1.7-1.8-2.2 -0.5-0.3-1.1-0.5-1.7-0.8 -0.5-0.2-1-0.3-1.5-0.2 -1.4 0.3-2.9 0.6-4.1 1.4 -1.2 0.8-2.4 1.6-3.3 2.6 -0.4 0.5-1 0.9-1.5 1.4 -0.5 0.5-1.1 0.9-1.7 1.3 -0.6 0.5-1.2 0.8-2 1.1 -0.8 0.3-1.6 0.2-2.5 0 -0.1 0-0.1-0.1-0.2-0.2 0-0.1 0-0.2 0.1-0.2 0.1-0.1 0.2-0.1 0.3-0.2 0.6-0.3 1.2-0.5 1.8-0.8 0.3-0.2 0.7-0.3 1-0.5 0.9-0.8 1.8-1.6 2.7-2.5 0.4-0.4 0.7-0.9 1-1.3 0-0.1 0-0.2 0-0.2 0 0 0-0.1-0.1-0.1 -0.9-0.4-1.9-0.7-2.9-0.8 -0.6-0.1-1.2-0.1-1.7 0.1 -2.9 0.6-5.3 2.1-7.2 4.3 -0.4 0.5-0.7 1-0.9 1.6 -0.4 1.8-0.8 3.5-1.2 5.3 -0.1 0.2-0.1 0.5-0.1 0.8 1.1 1.2 2.3 2.2 4 2.4 0.6 0.1 1.2 0.2 1.9 0.2 0.9 0 1.8 0 2.6 0.1 0.9 0.1 1.8 0 2.7-0.3 0.6-0.2 1.2-0.5 1.9-0.7 1.2-0.3 2.2-0.9 3.1-1.6 0.4-0.3 0.8-0.7 1.2-1 0.8-0.6 1.6-1.3 2.4-1.9 1-0.7 2.1-0.9 3.3-0.5 0.6 0.2 1.1 0.3 1.7 0.5 0.3 0.1 0.6 0.2 0.9 0.2 0.8 0.1 1.3-0.2 1.6-0.9C155.9 88.4 156.1 87.8 156.2 87.1zM155.2 140.9c0-0.2-0.2-0.4-0.4-0.3 -1 0.3-1.9 0.6-2.9 0.9 -0.8 0.2-1.7 0.4-2.6 0.5 -0.6 0.1-0.7 0.1-0.7 0.6 0 0.3-0.1 0.6-0.1 0.9 0.4 0.2 0.8 0.1 1.1 0.1 1-0.1 2-0.3 3-0.6 0.8-0.3 1.7-0.5 2.5-1C155.1 141.6 155.2 141.3 155.2 140.9zM145.2 169.8c0.2-0.2 0.6-0.3 0.7-0.7 -0.1 0-0.2-0.1-0.4-0.1 -2.2-0.2-4.4-0.5-6.6-0.7 -2.5-0.3-4.9-0.5-7.4-0.8 -2.2-0.3-4.5-0.6-6.7-0.9 -2.7-0.3-5.4-0.7-8.1-1 -0.2 0-0.4 0-0.6 0 -0.4 0.5-0.7 1-1.1 1.5 -0.4 0.5-0.8 1-1.2 1.4 -0.4 0.4-0.9 0.8-1.4 1.2 0.1 0.3 0.3 0.3 0.5 0.3 1.3 0.1 2.7 0.2 4 0.4 2.1 0.2 4.2 0.4 6.2 0.6 2.1 0.2 4.2 0.4 6.2 0.6 1 0.1 2 0.2 3 0.3 1.3 0.1 2.5 0.3 3.7 0.4 1.5 0.2 3 0.3 4.5 0.4 0.6 0.1 1.2 0.2 1.9 0 0.2-0.3 0.4-0.6 0.6-0.8 0.2-0.3 0.4-0.5 0.7-0.8 0.2-0.2 0.5-0.5 0.7-0.7C144.7 170.2 145 170 145.2 169.8zM144.8 147.7c0-0.2-0.1-0.3-0.3-0.3 -0.2 0-0.2 0.1-0.2 0.2 0 0.4 0 0.7 0.1 1.1C144.6 148.4 144.8 148.1 144.8 147.7zM144.1 160.2c0-0.2 0-0.5-0.1-0.7 -0.2-0.6-0.4-1.3-0.6-1.9 -0.3-1-0.7-2.1-0.9-3.1 -0.3-1.6-0.6-3.2-1-4.8 -0.2-0.7-0.3-1.4-0.1-2.1 0-0.2 0-0.4 0.1-0.6 0-0.2-0.2-0.3-0.3-0.3 -0.2 0.1-0.5 0.1-0.7 0.2 -1.4 0.5-2.9 0.7-4.4 0.6 -1.4-0.1-2.8-0.2-4.2-0.4 -0.6-0.1-0.7 0-0.8 0.5 -0.1 0.7-0.3 1.3-0.4 2 -0.3 2-0.5 4-0.4 6 0.1 1.1 0.3 2.1 0.8 3 0.3 0.7 0.8 1.2 1.4 1.5 1.3 0.7 2.7 1.1 4.2 1.2 2.2 0.3 4.4 0 6.6-0.6C143.5 160.5 143.9 160.5 144.1 160.2zM143.5 12.3c0-0.2-0.2-0.3-0.3-0.3 -0.5-0.2-1-0.4-1.5-0.6 -2.2-0.9-4.4-1.2-6.7-1 -1.9 0.2-3.7 0.8-5.2 1.9 -0.2 0.1-0.3 0.2-0.4 0.5 1.6-0.3 3.1-0.6 4.7-0.8 1.6-0.3 3.2-0.2 4.8-0.1C140.4 12 142 12.2 143.5 12.3zM142 181.2c0.2-0.4-0.1-0.9-0.5-1 -0.5-0.1-0.9-0.1-1.4-0.2 -2.4-0.3-4.8-0.5-7.2-0.8 -2.8-0.3-5.6-0.6-8.4-0.8 -0.9-0.1-1.8-0.2-2.7-0.3 -2-0.2-3.9-0.4-5.9-0.6 -2-0.2-3.9-0.4-5.9-0.6 -2.7-0.3-5.5-0.6-8.2-0.9 -2.7-0.3-5.3-0.6-8-0.8 -1-0.1-2-0.3-3-0.4 -1-0.1-1.9-0.2-2.9-0.3 -0.3 0-0.7 0-0.9 0.3 0 0 0 0.2 0 0.2 0.1 0.1 0.3 0.1 0.5 0.2 0.7 0.1 1.3 0.2 2 0.2 2.5 0.3 5 0.6 7.5 0.8 1 0.1 1.9 0.2 2.9 0.3 1.8 0.2 3.7 0.4 5.5 0.6 1.8 0.2 3.6 0.4 5.4 0.6 1.8 0.2 3.7 0.4 5.5 0.6 1.8 0.2 3.7 0.4 5.5 0.6 1.8 0.2 3.7 0.4 5.5 0.7 2.5 0.3 5.1 0.6 7.6 0.8 1 0.1 2 0.3 3 0.4 1.2 0.1 2.4 0.3 3.6 0.4 0.1 0 0.3 0 0.4 0C141.9 181.4 142 181.3 142 181.2zM141.9 174.2c0 0 0-0.2 0-0.2 0-0.1-0.1-0.1-0.2-0.1 -0.9-0.1-1.7-0.2-2.6-0.3 -1.2-0.1-2.4-0.2-3.6-0.3 -2.1-0.2-4.2-0.4-6.2-0.6 -2.1-0.2-4.2-0.4-6.4-0.6 -1-0.1-1.9-0.2-2.9-0.3 -1.3-0.1-2.6-0.3-3.9-0.4 -1.2-0.1-2.4-0.2-3.6-0.3 -1.6-0.2-3.2-0.4-4.7-0.4 -0.5 0-0.9-0.1-1.4-0.1 -0.5-0.1-0.9-0.2-1.4-0.2 -1.1-0.1-2.2-0.3-3.4-0.4 -0.4 0-0.8 0-1.3 0 -2 0.1-3.9-0.1-5.9-0.5 -1.3-0.3-2.5-0.6-3.8-0.6 -0.2 0-0.5 0-0.7 0 -0.1 0-0.2 0.1-0.3 0.2 -0.1 0.1 0 0.3 0.2 0.4 0.2 0 0.3 0.1 0.5 0.1 1.5 0.1 3.1 0.3 4.6 0.4 1.2 0.1 2.4 0.2 3.6 0.3 0.1 0 0.2 0 0.4 0.1 0.5 0.1 1.1 0.1 1.6 0.2 0.4 0 0.8 0.1 1.1 0.1 1.3 0.1 2.7 0.3 4 0.4 1.2 0.1 2.4 0.2 3.6 0.3 0.9 0.1 1.7 0.2 2.6 0.3 1.2 0.1 2.5 0.3 3.7 0.4 1.2 0.1 2.3 0.2 3.5 0.3 2 0.2 4.1 0.4 6.1 0.6 2 0.2 4.1 0.4 6.1 0.6 2.8 0.3 5.7 0.6 8.5 0.9 0.5 0.1 1.1 0.1 1.6 0.1C141.7 174.3 141.8 174.2 141.9 174.2zM141.8 178.8c0-0.3-0.1-0.5-0.4-0.5 -1-0.1-1.9-0.2-2.9-0.3 -1.2-0.1-2.3-0.2-3.5-0.3 -1.2-0.1-2.5-0.3-3.7-0.4 -1.2-0.1-2.3-0.2-3.5-0.3 -2-0.2-4-0.4-6-0.6 -2-0.2-4.1-0.4-6.1-0.6 -1-0.1-1.9-0.2-2.9-0.3 -1.2-0.1-2.4-0.3-3.6-0.4 -2-0.2-3.9-0.4-5.9-0.6 -1.9-0.2-3.8-0.4-5.7-0.7 -2.2-0.2-4.3-0.5-6.5-0.7 -0.7-0.1-1.3-0.1-2-0.2 -0.1 0-0.3 0-0.3 0.1 -0.1 0.1-0.1 0.3-0.2 0.5 0.2 0.1 0.4 0.1 0.5 0.1 1 0.1 2.1 0.2 3.1 0.3 1.3 0.1 2.6 0.3 3.9 0.4 1.1 0.1 2.3 0.2 3.4 0.3 1.9 0.2 3.8 0.4 5.7 0.7 1.9 0.2 3.8 0.4 5.7 0.6 2.7 0.3 5.3 0.6 8 0.9 2.7 0.3 5.4 0.6 8.1 0.8 1.1 0.1 2.2 0.3 3.2 0.4 1.1 0.1 2.2 0.2 3.4 0.3 1 0.1 2 0.2 3 0.3 1.5 0.2 3.1 0.3 4.6 0.5 0.1 0 0.3 0 0.4 0C141.7 179.1 141.8 178.9 141.8 178.8zM141.8 144.2c0-0.3 0-0.6 0.1-0.9 -0.1-0.1-0.2-0.2-0.2-0.2 -3 0-6-0.1-9-0.3 -0.1 0-0.2 0-0.4 0 0 0-0.1 0-0.2 0.1 -0.1 0.3-0.2 0.6-0.3 1 -0.1 0.4 0.1 0.6 0.4 0.6 1.6 0.2 3.1 0.3 4.7 0.4 0.2 0 0.4 0 0.6 0 0.7 0 1.3-0.1 2-0.1 0.7 0 1.4-0.2 2.1-0.3C141.7 144.4 141.7 144.3 141.8 144.2zM141.4 175.8c0.2 0 0.3-0.2 0.3-0.3 0-0.2-0.1-0.3-0.3-0.3 -0.1 0-0.2 0-0.2 0 -1.7-0.2-3.3-0.3-5-0.5 -2.1-0.2-4.2-0.4-6.2-0.6 -1-0.1-2-0.2-3-0.3 -1.4-0.1-2.7-0.3-4.1-0.4 -1.1-0.1-2.2-0.2-3.4-0.3 -2.1-0.2-4.2-0.4-6.2-0.6 -2.1-0.2-4.2-0.4-6.2-0.6 -0.9-0.1-1.8-0.2-2.7-0.3 -1.2-0.1-2.4-0.3-3.6-0.4 -1.1-0.1-2.2-0.2-3.2-0.3 -1.9-0.2-3.7-0.4-5.6-0.7 -0.6-0.1-1.2-0.1-1.8-0.2 -0.3 0.5-0.3 0.8 0.2 0.8 0.3 0 0.5 0 0.8 0.1 1.3 0.1 2.6 0.2 3.9 0.3 2.1 0.2 4.2 0.4 6.4 0.7 2 0.2 4.1 0.4 6.1 0.6 1 0.1 1.9 0.2 2.9 0.3 1.3 0.1 2.7 0.3 4 0.4 1.1 0.1 2.2 0.2 3.2 0.3 2 0.2 4 0.4 6 0.6 2 0.2 4.1 0.4 6.1 0.6 2.8 0.3 5.7 0.6 8.5 0.9 0.8 0.1 1.6 0.2 2.4 0.2C140.6 175.8 141 175.8 141.4 175.8zM141.5 177.2c0 0 0.1-0.1 0.1-0.1 0-0.1 0-0.2-0.1-0.2 -0.1-0.1-0.2-0.1-0.3-0.1 -1-0.1-2-0.2-3-0.3 -2-0.2-4-0.4-6-0.6 -2-0.2-4.1-0.4-6.1-0.6 -1-0.1-1.9-0.2-2.9-0.3 -1.3-0.1-2.6-0.3-3.9-0.4 -1.1-0.1-2.2-0.2-3.4-0.3 -2-0.2-4-0.4-6-0.6 -2-0.2-4.1-0.4-6.1-0.6 -1-0.1-1.9-0.2-2.9-0.3 -1.2-0.1-2.3-0.3-3.5-0.4 -1.2-0.1-2.5-0.3-3.7-0.4 -1.2-0.1-2.5-0.3-3.7-0.4 -0.2 0-0.3 0-0.5 0 -0.1 0-0.1 0.1-0.1 0.2 0 0.1 0.1 0.2 0.1 0.2 0.2 0.1 0.4 0.1 0.6 0.1 0.5 0.1 1.1 0.1 1.6 0.1 1.3 0.1 2.7 0.3 4 0.4 1.2 0.1 2.3 0.2 3.5 0.3 2 0.2 4.1 0.4 6.1 0.6 2 0.2 3.9 0.4 5.9 0.6 0.9 0.1 1.8 0.2 2.7 0.3 1.2 0.1 2.3 0.3 3.5 0.4 1.1 0.1 2.2 0.2 3.4 0.3 1.9 0.2 3.8 0.4 5.7 0.6 2 0.2 3.9 0.4 5.9 0.6 0.9 0.1 1.8 0.2 2.7 0.3 1.2 0.1 2.3 0.3 3.5 0.4 0.8 0.1 1.6 0.2 2.4 0.3C141.2 177.3 141.3 177.2 141.5 177.2zM134.6 164.7c0.1 0 0.2 0 0.2-0.1 -1.5-0.2-3-0.6-4.3-1.3 -1.4-0.6-2.3-1.6-2.9-3 -0.6-1.3-1.1-2.7-1.1-4.2 0-0.3 0-0.6-0.3-0.9 -0.2 0-0.5-0.1-0.8-0.1 -1.6-0.1-3.2-0.2-4.8-0.3 -1.7-0.1-3.3-0.3-5-0.4 -1.1-0.1-2.3-0.2-3.4-0.3 -0.7-0.1-1.5-0.2-2.2-0.4 -2.3-0.6-4.5-1.3-6.8-1.9 -5-1.4-10-2.8-15-4 -3-0.7-3.7-0.8-6.6-0.6 -0.2 0-0.4 0-0.6 0.1 -1.4 0.1-2.8 0.2-4.1 0.4 -0.8 0.1-1.7 0.2-2.5 0.3 -1.7 0.2-3.5 0.3-5.2 0.6 -2 0.3-4 0.8-6 1.3 -0.2 0-0.5 0.1-0.6 0.4 0.1 0.1 0.2 0.2 0.4 0.3 0.8 0.4 1.5 0.9 2.3 1.3 2.6 1.3 5.2 2.5 7.8 3.7 2.8 1.2 5.5 2.4 8.4 3.2 4.7 1.4 9.5 2.3 14.4 2.4 0.8 0 1.6 0.1 2.4 0.1 1.5 0.1 3.1 0.2 4.6 0.3 1.3 0.1 2.5 0.2 3.8 0.3 2.3 0.2 4.6 0.4 6.9 0.7 1.2 0.1 2.4 0.2 3.6 0.3 0.9 0.1 1.8 0.2 2.7 0.3 1.1 0.1 2.2 0.3 3.4 0.4 1.2 0.1 2.4 0.3 3.6 0.4 1.7 0.2 3.3 0.4 5 0.6 0.8 0.1 1.7 0.2 2.5 0.3C134.5 164.7 134.5 164.7 134.6 164.7zM128 74.7c-0.2 0-0.3 0-0.5 0 -0.7 0.1-1.3-0.2-1.9-0.5 -0.2-0.1-0.4-0.2-0.5-0.3 -0.6-0.4-1.3-0.6-2-0.7 -0.4-0.1-0.7-0.1-1.1-0.2 -0.3 0-0.5-0.2-0.8-0.4 -0.4-0.3-0.4-0.9 0.1-1.2 0.5-0.3 1-0.5 1.3-0.9 0.1-0.1 0.3-0.3 0.3-0.5 -0.6-0.9-0.7-0.9-1.6-1.1 -1.2-0.2-2.3-0.2-3.5-0.2 -0.1 0-0.2 0-0.4 0.1 -0.5 0.1-0.6 0.9-0.3 1.2 0.2 0.2 0.5 0.4 0.7 0.7 0.4 0.4 0.3 1.1-0.2 1.5 -0.2 0.2-0.5 0.3-0.8 0.3 -0.2 0-0.4 0-0.6-0.1 -0.7-0.2-1.2 0-1.8 0.4 -0.2 0.1-0.3 0.2-0.5 0.4 -0.6 0.6-1.3 1.1-2.1 1.4 -0.1 0-0.1 0.1-0.1 0.2 0.3 0.2 0.6 0.3 0.9 0.3 0.7 0.1 1.3 0.1 2-0.1 1.3-0.3 2.6-0.2 3.8 0.3 0.4 0.1 0.8 0.3 1.2 0.4 1.4 0.5 2.8 0.8 4.3 0.5 0.4-0.1 0.8-0.1 1.2-0.1 0.6-0.1 1.2-0.2 1.9-0.3C127.7 75.6 127.9 75.3 128 74.7zM114.8 70.3c0.1-0.1 0.1-0.2 0.2-0.2 -0.1 0-0.1-0.1-0.1-0.1 -0.2 0-0.2 0.1-0.2 0.2C114.6 70.3 114.8 70.4 114.8 70.3zM113.7 165.7c0.1-0.1 0.2-0.3 0-0.5 -1.2-0.1-2.4-0.3-3.7-0.4 -0.1 0-0.2 0-0.3 0 -1.6 1.3-1.9 1.6-4.4 1.2 -0.1 0.1-0.1 0.1-0.1 0.2 -0.3 0.4-0.3 0.7 0.1 0.9 1.7 0.9 3.5 1.2 5.3 0.9 1.1-0.2 2.1-0.6 2.7-1.6C113.4 166.1 113.5 165.9 113.7 165.7zM111.6 72.4c0.5-0.2 0.9-0.5 1.4-1.2 -0.6 0.1-0.9 0.1-1.2 0.2 -0.5 0-0.9 0.1-1.4 0 -2-0.4-3.4-1.5-4.1-3.5 -0.3-0.8-0.4-1.7-0.4-2.6 0-0.3 0.1-0.5-0.1-0.8 -0.1 0.1-0.1 0.1-0.1 0.1 -0.4 1.7-0.5 3.5-0.3 5.2 0.1 1 0.4 2.1 1 2.9 0.8 1.2 1.8 2.2 3.1 2.9 0 0 0.1 0 0.2 0 -0.2-0.3-0.4-0.5-0.6-0.7 -0.2-0.3-0.4-0.6-0.4-1 0-0.7 0.5-1.3 1.2-1.4 0.2 0 0.5 0 0.8 0C110.9 72.5 111.3 72.5 111.6 72.4zM104.3 164.7c0.1-0.1 0-0.4-0.1-0.4 -0.2 0-0.5-0.1-0.7-0.1 -2.9-0.2-5.9-0.3-8.8-0.3 -0.5 0-0.9 0-1.4-0.1 -1.4-0.1-2.8-0.1-4.3-0.3 -0.3 0-0.6-0.2-0.9 0.1 0.3 0.5 0.5 1.1 0.9 1.7 0.3-0.1 0.4-0.2 0.6-0.2 0.8-0.3 1.6-0.2 2.4 0.2 0.3 0.1 0.5 0.3 0.7 0.5 0.6 0.5 1.4 0.8 2.2 0.8 0.6 0.1 1.2 0.1 1.7 0.2 1.1 0.1 2.2 0.3 3.4 0.3 0.5 0 1 0 1.5 0 0.4 0 0.6-0.1 0.9-0.4C103 166.1 103.7 165.4 104.3 164.7zM89.8 167.7c0.5 0.1 1 0.2 1.6 0.1 -0.3-0.7-0.5-0.9-0.9-1.1 0 0-0.1 0-0.1 0 -0.4-0.1-0.8 0.2-0.8 0.7C89.5 167.5 89.6 167.7 89.8 167.7zM87.3 172.3c0.7-1.1 1-2.3 0.8-3.6 0-0.2 0-0.5 0-0.8 -0.1-1.1-0.4-2.1-1.1-2.9 -0.5-0.6-1.1-1.2-1.6-1.8 -0.2-0.3-0.5-0.4-0.9-0.5 -1.3-0.3-2.6-0.7-3.9-1 -0.4-0.1-0.8-0.2-1.2-0.1 -0.9 0.1-1.7 0.2-2.6 0.4 -0.1 0-0.2 0.1-0.2 0.1 0 0 0 0.1 0 0.1 0 0 0 0.1 0 0.1 0.3 0.2 0.7 0.4 1 0.5 1 0.5 1.9 1.2 2.5 2.2 0.6 1 1.1 2.1 1.4 3.3 0.2 0.7 0.3 1.4 0.4 2.1 0.2 1.7 0.2 3.3-0.2 5 0 0.2-0.1 0.3-0.1 0.6 0.2-0.1 0.4-0.2 0.5-0.2 0.6-0.4 1.3-0.8 1.9-1.2 0.7-0.4 1.4-0.8 2.2-1.2C86.6 173.1 87 172.7 87.3 172.3zM79.7 173.8c0.2-0.8 0.3-1.6 0.3-2.2 0-1.5-0.2-2.7-0.5-4 -0.4-1.4-1.3-2.2-2.6-2.7 -0.2-0.1-0.5-0.1-0.7-0.2 -1.2-0.4-2.5-0.4-3.6-0.9 -0.1-0.1-0.3-0.1-0.5-0.1 -0.3 0-0.7 0.1-0.9 0.3 -1.9 1.4-3.3 3.3-4.1 5.6 -0.4 1.2-0.4 2.5 0.2 3.7 0.4 0.9 1 1.8 1.6 2.5 0.8 0.9 1.8 1.6 3 1.9 1.5 0.4 3.1 0.3 4.6-0.1 1-0.3 1.8-0.9 2.4-1.7C79.3 175.1 79.6 174.5 79.7 173.8z"/><path d="M224.9 201.2c0.1 0.1 0.1 0.1 0.1 0.3 -0.1 0-0.2 0.1-0.3 0.1 -0.5-0.1-1-0.1-1.5-0.2 -0.2 0-0.5 0-0.7 0 -0.4 0-0.7 0.3-0.7 0.7 0 0.3 0.2 0.7 0.5 0.8 0.4 0.1 0.7 0.2 1.1 0.2 0.3 0 0.6 0.1 0.9 0.1 -0.1 0.1-0.1 0.3-0.2 0.4 -0.4 0.3-0.8 0.6-1.3 0.8 -0.5 0.2-0.9 0.3-1.5 0.2 -1.2-0.2-2.3-0.3-3.5-0.4 -0.5-0.1-1.1-0.1-1.7-0.3 0.1-0.2 0.2-0.3 0.3-0.4 0.6-0.5 1.2-0.9 1.8-1.4 0.2-0.2 0.4-0.4 0.6-0.6 0.3-0.4 0.3-0.9-0.1-1.2 -0.2-0.1-0.4-0.2-0.5-0.3 -0.1-0.1-0.2-0.3-0.3-0.4 -0.1-0.1 0.1-0.3 0.2-0.3 0.5 0.1 1.1 0.1 1.6 0.2 1.1 0.2 2.2 0.3 3.2 0.5 0.3 0 0.6 0.2 0.9 0.4C224.2 200.5 224.6 200.8 224.9 201.2z" class="a"/><path d="M212.4 183.6c0.7-0.2 1.4 0 2.2 0C213.7 183.8 213.4 183.8 212.4 183.6z"/><path d="M212.4 183.6c0 0 0 0-0.1 0l0 0C212.4 183.6 212.4 183.6 212.4 183.6z"/><path d="M212.4 183.6l0 0c0 0 0 0 0 0C212.4 183.6 212.4 183.6 212.4 183.6z"/><path d="M209.3 54.9c0.3 0.2 0.4 0.4 0.5 0.9 -0.4-0.2-0.7-0.4-0.9-0.5 -0.3-0.1-0.5-0.1-0.8-0.2 -0.1-0.2 0.1-0.3 0.2-0.3C208.7 54.6 209 54.7 209.3 54.9z" class="a"/><path d="M209 181.4c-0.6 0.2-1.3 0-1.9 0C207.7 181.3 208.3 181.4 209 181.4z"/><path d="M207.1 181.4c0 0 0 0 0 0l0 0C207.1 181.4 207.1 181.4 207.1 181.4z"/><path d="M207.1 181.4l0 0c0 0 0 0 0 0C207 181.4 207 181.4 207.1 181.4z"/><path d="M206.7 181.2c0.1 0 0.2 0.2 0.4 0.3 -0.4 0-0.8-0.1-1.2-0.1 -0.4 0-0.8-0.1-1.1-0.2C205.3 181 206 181.1 206.7 181.2z"/><path d="M206.5 56.7c0.1 0.2-0.1 0.4-0.2 0.5 -0.5 0.9-1.1 1.8-1.6 2.7 -1.4 2.4-2.4 5-3 7.7 -0.5 2.2-0.9 4.3-1 6.6 -0.2 3.1-0.2 6.2 0.5 9.2 0.1 0.4 0.1 0.7 0.2 1.1 0.2 2.4-0.2 4.7-1.3 6.9 -1.2 2.5-2.9 4.6-4.8 6.5 -0.7 0.7-1.5 1.3-2.3 1.8 -0.2 0-0.3-0.1-0.4-0.2 -0.2-0.4-0.5-0.8-0.7-1.2 0.2-0.2 0.3-0.3 0.5-0.4 0.4-0.3 0.8-0.5 1.3-0.8 1.3-1 2.3-2.2 2.7-3.8 0.4-1.7 0.8-3.3 1.1-5 0.4-2.2 0.3-4.3-0.2-6.5 -0.1-0.6-0.3-1.2-0.4-1.8 -0.5-2.3-0.1-4.6 0.6-6.8 1.3-4.4 2.9-8.6 5.1-12.7 0.4-0.7 0.9-1.4 1.4-2.1 0.4-0.5 0.8-0.9 1.3-1.2 0.4-0.2 0.7-0.4 1.1-0.6C206.4 56.6 206.5 56.7 206.5 56.7z" class="a"/><path d="M204.6 159.3c0.1 0 0.2 0.2 0.3 0.3 -0.2 0.2-0.3 0.5-0.5 0.7 -0.9 0.9-2 1.5-3.2 2 -1.5 0.5-3 0.9-4.6 1.2 -2.8 0.5-5.7 1-8.5 1.5 -2.5 0.4-5 0.6-7.5 0.9 -3 0.3-5.9 0.4-8.9 0.5 -4.6 0.2-9.1 0.3-13.7 0.2 -2.6-0.1-5.2-0.3-7.8-0.4 -1.5-0.1-3-0.2-4.5-0.3 -1.8-0.1-3.6-0.3-5.4-0.5 -1.5-0.1-2.9-0.3-4.7-0.4 0.8-0.2 1.2-0.1 1.7-0.1 2.3 0.1 4.5-0.4 6.7-1.1 0.6-0.2 1.1-0.4 1.6-0.6 2.2 1.2 4.5 1.5 6.9 1.4 2 0 3.8-0.8 5.4-2 1.2-0.9 1.9-2.2 2.1-3.7 0.1-0.4 0.1-0.7 0.2-1.1 0.3 0 0.5 0 0.8 0 2.5 0.2 4.9 0.4 7.4 0.6 1.3 0.1 2.5 0 3.8 0 0.9 0 1.8-0.1 2.6-0.1 4.8-0.1 9.6-0.1 14.4 0.1 3.5 0.1 6.9 0.3 10.4 0.5 1.3 0.1 2.5 0.1 3.7 0.4C203.9 159 204.3 159.1 204.6 159.3z" class="a"/><path d="M204.7 181.1c0 0-0.1 0-0.1 0l0 0C204.6 181.1 204.7 181.1 204.7 181.1z"/><path d="M204.6 181.1l0 0c0 0 0 0 0 0C204.6 181.1 204.6 181.1 204.6 181.1z"/><path d="M201.6 186.2c0 0 0 0 0 0 -0.1 0-0.3 0-0.4 0C201.3 186.2 201.5 186.2 201.6 186.2z"/><path d="M201.2 186.2c0 0-0.1 0-0.1 0l0 0C201.1 186.2 201.1 186.2 201.2 186.2z"/><path d="M201 186.2l0 0c0 0 0 0 0 0C201 186.2 201 186.2 201 186.2z"/><path d="M203.7 209.9c0.1 0.4 0.4 0.8 0.3 1.4 -0.2 0-0.3 0-0.4 0 -0.9-0.4-1.8-0.8-2.8-1.2 -0.2-0.1-0.5-0.2-0.7-0.3 -0.3-0.1-0.8 0.1-0.9 0.4 -0.2 0.3-0.1 0.8 0.2 1 0.3 0.2 0.6 0.3 0.9 0.4 0.3 0.2 0.7 0.2 1 0.6 -0.1 0.1-0.1 0.1-0.1 0.2 -0.9 0.1-1.7 0.2-2.6 0.3 -0.2 0-0.4 0-0.6 0.1 -0.5 0.2-0.9 0.1-1.3-0.1 -1.7-1-3.5-2-5.5-3.2 0.8-0.2 1.3-0.1 1.8-0.1 0.5 0 1.1 0 1.6 0 0.5 0 1 0 1.5 0 0.5 0 1 0 1.5-0.1 0-1.2-0.6-2.2-0.5-3.4 0.2 0 0.3 0 0.4 0.1 1.8 1 3.6 1.9 5.4 2.9C203.3 209.1 203.6 209.4 203.7 209.9z" class="a"/><path d="M196.8 251c0.2 0.5 0.2 0.9 0 1.3 -0.3 0-0.7 0-1 0 0-0.2-0.2-0.3-0.3-0.3 -0.7-0.2-1.4-0.4-2-0.6 -0.7-0.2-1.4-0.3-2.1-0.3 -1.5-0.2-2.9-0.3-4.4-0.3 -0.2 0-0.4 0-0.6 0 -0.1-0.2-0.1-0.4 0-0.6 0.2-0.2 0.3-0.4 0.6-0.5 0.6-0.4 1.3-0.6 2-0.6 1.6-0.1 3.1 0.2 4.6 0.6 0.4 0.1 0.7 0.2 1.1 0.4 0-0.1 0.1-0.3 0.1-0.3 -0.4-1-0.9-2-1.3-3 -0.3-0.6-0.5-1.2-0.7-1.9 -0.2-0.5-0.2-1 0-1.5 0.1 0 0.3 0 0.3 0.1 0.2 0.3 0.4 0.5 0.6 0.8 0.3 0.6 0.6 1.2 0.9 1.8C195.3 247.7 196 249.4 196.8 251z"/><path d="M190.3 102.6c0.2 1.1 0.1 2.1-0.4 3 -0.6 1-1.3 1.8-2.3 2.2 -1.7 0.8-3.6 1.2-5.5 1 -0.6 0-1.2-0.3-1.8-0.5 -1.5-0.7-2.9-1.5-4.4-2.2 -1.2-0.6-2.4-1.4-3.4-2.4 -2.2-2.2-4.2-4.5-5.9-7.1 -0.2-0.3-0.4-0.6-0.6-0.9 -0.5-0.8-1.2-1.4-2.1-1.7 -0.7-0.3-1.4-0.7-2.1-1.2 -0.2-0.1-0.4-0.3-0.7-0.4 -0.1-0.1-0.3 0-0.5 0 -0.1 0.3 0.1 0.5 0.2 0.7 0.1 0.3 0.1 0.6 0.2 0.9 0 0.2 0.1 0.5 0.1 0.7 0.1 0.4 0.2 0.7 0.3 1.1 1 3.5 1.9 6.9 2.7 10.5 0.3 1.6 0.5 3.2 0.6 4.9 0.1 1.8 0.4 3.5 0.7 5.2 0.3 1.9 0.8 3.9 1.3 5.8 0.1 0.4 0.2 0.9 0.3 1.4 -0.2 0.1-0.3 0.2-0.5 0.3 -0.4 0.1-0.8 0.2-1.2 0.3 -2.6 0.6-5.1 1.7-7.3 3.2 -2.6 1.7-5 3.7-7.1 5.9 -2 2.2-3.8 4.5-5.5 6.8 -0.1 0.2-0.3 0.4-0.5 0.6 0 0-0.1 0-0.1 0 -0.2-0.2-0.1-0.4 0-0.6 0.6-2.2 1.1-4.4 1.7-6.6 1.2-4.6 2.4-9.3 3.6-13.9 0-0.1 0.1-0.2 0.1-0.3 0-0.1 0.1-0.2 0.1-0.4 0.1-0.5 0.4-0.9 0.8-1.3 1.3-1.2 2.5-2.4 3.7-3.6 0.7-0.7 1.4-1.5 2.1-2.2 0.7-0.7 1.2-1.5 1.6-2.4 0.3-0.6 0.5-1.3 0.6-2.1 -0.6 0.2-0.8 0.7-1.1 1.1 -0.3 0.3-0.6 0.7-1 1 -0.4 0.4-0.7 0.7-1.1 1 -0.3 0.3-0.6 0.7-1 1 -0.4 0.4-0.7 0.7-1.1 1 -0.3 0.3-0.7 0.6-1 0.9 -0.4 0.3-0.7 0.7-1.2 1 0-0.2 0-0.4 0-0.5 0.3-1.2 0.7-2.5 1-3.7 0.1-0.2 0.1-0.4 0.2-0.6 0.1-0.6 0.4-1 0.8-1.4 0.9-1 1.7-1.9 2.6-2.9 0.9-1 1.4-2.2 1.7-3.5 0-0.1 0-0.2 0-0.4 0 0 0-0.1-0.1-0.1 -0.4 0.1-0.6 0.6-0.9 0.9 -0.3 0.3-0.6 0.6-0.9 0.9 -0.3 0.3-0.6 0.6-0.9 0.9 -0.3 0.3-0.5 0.7-0.9 0.9 -0.1-0.6-0.1-0.6 0.7-3.7 0 0 0 0 0 0 0 0 0 0 0 0 0.1-0.4 0.2-0.7 0.1-1.1 0 0 0 0 0 0 0 0 0 0 0-0.1 0.1-0.1 0.2-0.2 0.2-0.3 0-0.1 0.1-0.3 0.1-0.4 0 0 0 0 0 0 0 0 0 0 0-0.1 0-0.1 0.1-0.2 0.1-0.3 0 0 0-0.1 0-0.1 -0.1 0-0.1 0-0.1 0.1 0 0.1 0 0.2 0 0.3 0 0 0 0 0 0 0 0 0 0 0 0 -0.2 0.1-0.3 0.2-0.3 0.5 0 0.1 0 0.2-0.1 0.3 0 0 0 0-0.1 0 0 0 0 0 0 0.1 -0.2 0.4-0.2 0.7-0.1 1.1 0 0 0 0 0 0 0 0 0 0 0 0 -0.2 0-0.3 0.1-0.3 0.3 -0.2 0.8-0.6 1.7-0.7 2.5 -0.2 1.3-0.9 2.4-1.9 3.3 -1.4 1.3-2.8 2.7-4.2 3.9 -1.4 1.2-2.9 2.4-4.6 3.3 -1.6 0.8-3 1.8-4.2 3.1 -0.3 0.4-0.7 0.7-1.1 1 -0.1 0.1-0.2 0.2-0.3 0.4 0.2 0 0.3 0.1 0.4 0.1 0.3-0.1 0.6-0.2 0.8-0.3 0.2-0.1 0.4-0.1 0.6-0.2 1-0.4 2-0.6 2.9-1.1 1.8-1.1 3.6-2.1 5.2-3.5 1.5-1.2 2.8-2.5 4.2-3.8 0.2-0.2 0.3-0.4 0.6-0.4 0 0.1 0 0.3 0 0.4 -0.4 1.4-0.8 2.8-1.1 4.2 -0.2 0.7-0.5 1.2-1 1.5 -0.3 0.2-0.5 0.4-0.8 0.6 -1.2 0.9-2.3 1.8-3.3 2.9 -0.6 0.6-1.2 1-1.9 1.5 -0.3 0.3-0.7 0.4-0.9 0.8 1.7-0.1 3.7-0.9 6.4-2.6 0.2 0.1 0.1 0.3 0.1 0.4 -0.7 2.6-1.4 5.2-2.1 7.8 -1.1 4-2.1 8-3.2 12 -0.1 0.4-0.2 0.8-0.4 1.2 -0.2 0-0.4 0.1-0.6 0.1 -1.9 0.1-3.8 0.3-5.8 0.2 -1.5-0.1-3-0.1-4.5-0.2 -4-0.4-7.7-1.4-11.1-3.7 -2.1-1.5-4.2-3-6.2-4.7 -1.5-1.3-2.8-2.9-4-4.5 -0.9-1.3-1.6-2.7-2.1-4.1 -0.7-2.3-1.3-4.7-1.6-7.1 -0.2-2.3-0.2-4.6 0.1-6.9 0.2-1.4 0.5-2.7 0.9-4 0.7-2.5 1.6-5 2.7-7.4 0.3-0.7 0.7-1.3 1.2-1.9 0.7-0.8 1.5-1.3 2.5-1.7 0.9-0.3 1.8-0.6 2.7-0.9 1.6-0.5 3.2-0.2 4.7 0.1 0 0 0.1 0 0.1 0 0.7 0.2 1.4 0.2 2.1 0.5 0.7 0.3 1.1 0.9 1.6 1.4 0.7 0.6 1.5 1.1 2.2 1.6 0.3 0.2 0.6 0.3 0.9 0.4 1.5 0.4 3 0.7 4.6 0.7 1.1 0 2.2 0 3.3 0 0.8 0 1.5-0.1 2.2-0.4 0.4-0.1 0.7-0.3 1.1-0.4 0.8-0.3 1.6-0.7 2.4-1 1.2-0.4 2.2-1 3.1-1.8 0.8-0.7 1.7-1.4 2.5-2.1 0.2-0.2 0.5-0.4 0.7-0.5 0.2-0.1 0.5-0.2 0.7-0.1 0.6 0.2 1.1 0.3 1.7 0.5 0.6 0.2 1.3 0.4 2 0.4 1.6 0 2.8-0.6 3.6-1.9 0.9-1.4 1.3-3 1-4.7 -0.1-0.7-0.2-1.3-0.2-2.1 0.2 0 0.4-0.1 0.6-0.1 1.4 0 2.8 0.1 4.1 0.2 0.4 0 0.8 0.1 1.1 0.1 0.7 0 1.3 0.3 1.9 0.7 1.1 0.8 2.1 1.6 2.8 2.7 0.6 0.9 1.2 1.8 1.8 2.7 0.7 1 1.3 2 2 3.1 0.6 1 1.5 1.8 2.4 2.6 1.9 1.6 3.9 2.9 6.2 3.7 0.2 0.1 0.4 0.2 0.7 0.3 -0.3 1.5-1 2.9-1.1 4.4 0 0 0 0.1 0.1 0.1 0.1-0.1 0.2-0.2 0.3-0.4 0.5-0.7 1-1.3 1.5-2 0.5-0.7 1.1-1.3 1.8-1.8 0.2-0.2 0.5-0.3 0.7-0.6 0.3-0.4 0.7-0.5 1.2-0.5 1.5 0.1 2.6 0.8 3.2 2.2C190.1 101.9 190.2 102.3 190.3 102.6zM155.5 97.6c0 0 0-0.1 0.1-0.1 0-0.1 0-0.1-0.1 0C155.5 97.5 155.5 97.6 155.5 97.6zM152.9 98.8c0-0.1-0.1-0.2-0.1-0.3 -0.1 0-0.2 0-0.3 0.1 -0.9 0.7-1.7 1.5-2.4 2.4 -0.5 0.7-1.1 1.3-1.6 1.9 -0.8 1-1.7 2-2.7 2.8 -1.8 1.7-3.8 3.2-5.9 4.5 -0.9 0.5-1.8 1.1-2.7 1.6 -1.2 0.7-2.4 1.4-3.5 2.2 -0.4 0.3-0.8 0.5-1.2 0.7 -0.2 0.2-0.5 0.3-0.8 0.6 0.2 0.1 0.3 0.2 0.4 0.2 1.7 0.1 3.3-0.3 4.8-1.1 2-1 3.9-2.1 5.7-3.3 1.7-1.1 3.3-2.3 4.7-3.8 1.7-1.7 3.1-3.6 4.5-5.6C152.4 100.9 152.7 99.9 152.9 98.8zM143.4 102.5c0.1-0.1 0.2-0.2 0.1-0.4 -0.2 0-0.4 0.2-0.5 0.3 -1.2 1-2.4 1.9-3.6 2.9 -1.3 1-2.6 2-4 2.8 -0.5 0.3-0.9 0.6-1.2 1.1 -0.6 0.8-1.2 1.5-1.9 2.2 -0.1 0.1-0.1 0.1-0.1 0.2 -0.1 0.1 0 0.3 0.2 0.4 0.2 0 0.3 0.1 0.5 0.1 1 0.1 1.9-0.2 2.8-0.6 0.7-0.3 1.3-0.7 1.8-1.3 1.2-1.6 2.4-3.1 3.7-4.6C141.9 104.4 142.7 103.4 143.4 102.5z" class="a"/><path d="M193.2 247.8c0.4 0.3 0.5 0.8 0.2 1.1 -0.2 0.3-0.7 0.3-1 0.1 -0.3-0.2-0.6-0.4-0.8-0.6 -5.1-3.6-10-7.6-14.8-11.6 -5.5-4.5-11-8.9-16.5-13.4 -0.6-0.5-1.3-0.3-2.1-0.3 -1.2-0.1-2.4 0-3.6-0.1 -0.3 0-1.3-0.8-1.5-1 -2-1.6-4-3.8-5.9-5.5 0.2-0.4 1.1-0.1 1.5 0 0.1 0 0.2 0 0.2 0.1 1 0.4 2.1 0.3 3.2 0.3 0.4-0.8 0.4-0.7 1-1.1 0.4-0.3 0.9-0.2 1.3-0.1 0.4-0.2 0.4-0.6 0.5-0.9 0.1-0.3 0.2-1.2 0.5-1.4 0.2 0.1 0.6 0.7 0.8 0.8 1.2 0.9 2.2 1.3 3.5 2.3 0.3 0.3 1 0.9 1.3 1.2 0.5 0.5 0.3 1.2 0.3 1.9 0 0.7 0.2 1.5 0.3 2.3 0.3 0.2 0.6 0.5 0.9 0.7 4.3 3.6 8.7 7.2 13 10.8 2.6 2.2 5.1 4.4 7.7 6.6 2.7 2.3 5.6 4.5 8.5 6.6C192.1 247 192.7 247.4 193.2 247.8zM160.4 220.7c0-0.2 0-0.5 0-0.7 0-0.7-0.3-1.3-0.8-1.7 -0.1-0.1-0.2-0.2-0.3-0.2 -1.1-0.9-2.2-1.8-3.3-2.6 -0.1-0.1-0.3-0.2-0.5-0.1 -0.2 0.4-0.4 0.7-0.4 1.2 0.1 0.1 0.1 0.3 0.2 0.4 0.1 0.1 0.2 0.3 0.2 0.4 0.1 0.3-0.1 0.6-0.4 0.7 -0.2 0-0.4 0.1-0.6 0.1 -0.3 0-0.6-0.2-0.9-0.2 -0.8 0-1.7 0-2.5 0 0 0-0.1 0.1-0.1 0.2 1.1 1.1 2.3 2.2 3.5 3.3 1.1 0.2 2.2 0.3 3.3 0.5 0 0 0.1 0 0.1-0.1 -0.1-0.1-0.2-0.3-0.3-0.4 -0.4-0.3-0.7-0.6-1.1-0.9 -0.2-0.2-0.4-0.4-0.5-0.7 -0.2-0.3-0.1-0.6 0-0.8 0.3-0.5 0.8-0.7 1.3-0.4 0.3 0.1 0.5 0.3 0.7 0.5 0.6 0.5 1.2 1 1.8 1.5 0.1 0.1 0.2 0.3 0.4 0.2C160.4 220.7 160.4 220.7 160.4 220.7z"/><path d="M185.7 167.9c0.6-0.1 0.9 0 0.7 0.8 -0.4 1.5-1 2.9-1.9 4 -1 1.2-2.3 2.1-3.9 2.5 0-0.1 0-0.2 0-0.2 0.1-0.2 0.3-0.3 0.5-0.4 0.4-0.4 0.9-0.9 1.3-1.3 1.1-1.2 1.9-2.6 2.4-4.2 0.1-0.4 0.2-0.7 0.3-1C185.3 167.9 185.5 168 185.7 167.9z" class="a"/><path d="M145.4 48.7c0 0 0 0 0 0 0 0 0 0 0 0 0.1 0 0.1 0 0.2 0 0 0 0.1 0 0.1 0 0 0 0 0 0-0.1 -0.1 0-0.1 0-0.2 0 -0.1 0-0.1 0.1-0.2 0.1 0 0 0 0 0 0C145.5 48.7 145.5 48.7 145.4 48.7zM145.4 48.7c0-0.2-0.1-0.4-0.3-0.4 -1.1-0.3-2.1-0.1-3 0.6 0 0 0 0.1-0.1 0.2 0 0 0 0 0 0 0 0 0 0 0 0 -0.1 0.1-0.3 0.1-0.4 0.2 -0.2 0.4-0.5 0.8-0.6 1.2 -0.4 1.3-0.4 2.6-0.2 4 0.1 0.4 0.2 0.8 0.4 1.2 0.4 0.8 1.1 1.2 2.1 1.1 -0.1-0.1-0.1-0.1-0.2-0.1 -0.9-0.1-1.5-0.7-1.8-1.6 -0.2-0.6-0.3-1.2-0.3-1.8 0-1.3 0-2.7 0.8-3.8 0.1-0.1 0-0.2 0.1-0.3 0 0 0 0 0 0 0 0 0 0 0 0 0.3 0.1 0.5-0.2 0.7-0.3C143.7 48.4 144.6 48.1 145.4 48.7zM185.8 37.9c-0.2 0.2-0.3 0.3-0.4 0.4 -1.2 0.8-2.5 1.6-3.8 2.2 -0.2 0.1-0.5 0.2-0.7 0.3 -1.1 0.4-1.1 0.3-1.8-0.5 -0.8-0.9-1.6-1.7-2.4-2.5 -0.1-0.1-0.2-0.1-0.3-0.2 -0.1 0.4 0.2 0.5 0.3 0.8 0.2 0.3 0.3 0.5 0.5 0.7 0.1 0.2 0.3 0.4 0.4 0.6 0.2 0.2 0.3 0.5 0.5 0.7 0.2 0.2 0.3 0.5 0.4 0.7 0 0.1-0.1 0.1-0.1 0.2 -0.1 0.1-0.2 0.2-0.3 0.2 -0.8 0.1-1.6 0.4-2.4 0.3 -0.6-0.8-1.1-1.6-1.7-2.4 -0.1-0.2-0.2-0.3-0.4-0.5 -0.1-0.1-0.2 0-0.3 0 0 0 0 0 0 0 0 0 0 0 0 0 0 0 0.1-0.1 0.1-0.2 0 0 0-0.1 0-0.1 0 0.1 0 0.2 0 0.2 0 0 0 0 0 0 0 0 0 0 0 0 0.5 0.9 0.9 1.8 1.2 2.8 -0.1 0.1-0.2 0.2-0.2 0.2 -1 0.2-2.1 0.2-3 0.1 -0.3-0.2-0.4-0.5-0.5-0.8 -0.6-1.4-1.2-2.8-1.8-4.1 -0.1-0.2-0.2-0.5-0.5-0.6 -0.1 0.7 0.2 1.2 0.3 1.8 0.1 0.6 0.3 1.1 0.4 1.7 0.2 0.6 0.3 1.2 0.3 1.8 -0.3 0.1-0.5 0-0.7-0.1 -0.4-0.2-0.9-0.3-1.3-0.3 -0.4 0-0.7-0.1-1.1-0.3 0 0-0.1 0-0.1-0.1 -1.3-1.2-2.9-2.2-3.9-3.7 -0.3-0.4-0.5-0.8-1-1.2 0 0.2 0 0.4 0 0.5 0.4 1.2 0.7 2.5 1.1 3.7 0.2 0.7 0.5 1.2 1 1.7 0.1 0.1 0.1 0.2 0.2 0.3 -0.5 0-0.8-0.3-1.2-0.4 -0.4-0.1-0.8-0.2-1.2-0.3 -0.4-0.1-0.7-0.2-1.1-0.3 -0.4-0.1-0.8-0.2-1.2-0.3 0 0.1 0 0.2 0 0.3 1.4 0.8 2.7 1.9 4.1 2.7 0.7 0.4 1.3 0.9 2 1.3 0.1 0.5 0.1 1 0 1.5 -0.2 1.1-0.3 2.2-0.8 3.3 -0.5-0.2-0.9-0.4-1.3-0.6 -1.3-0.7-2.6-1.4-3.9-2 -0.4-0.2-0.9-0.5-1.4-0.5 -0.1 0-0.1 0.1-0.2 0.1 0 0 0 0.1 0 0.1 0.1 0.1 0.2 0.2 0.3 0.2 0.6 0.4 1.1 0.7 1.7 1.1 1.2 0.8 2.3 1.5 3.5 2.3 0.3 0.2 0.6 0.4 0.9 0.7 0 0.2 0.1 0.3 0 0.4 -0.2 1-0.4 1.9-0.7 2.9 -0.2 0-0.3-0.1-0.4-0.1 -0.3-0.2-0.6-0.4-0.8-0.6 -0.7-0.5-1.4-0.8-2.2-0.9 -0.6-0.1-1.2-0.3-1.8-0.5 -0.2-0.1-0.5-0.1-0.8 0 0.1 0.1 0.2 0.3 0.3 0.4 0.8 0.6 1.5 1.2 2.2 1.8 0.3 0.3 0.6 0.4 0.9 0.6 0.7 0.5 1.4 1 2.1 1.5 0.1 1.1 0 3.2-0.2 5.3 -0.2 0.1-0.3 0.1-0.5 0 -0.8-0.5-1.6-1-2.4-1.5 -0.8-0.5-1.7-1.1-2.6-1.6 -0.3-0.2-0.6-0.3-0.9-0.4 -0.1 0-0.2-0.1-0.4-0.1 -0.1 0.2 0.1 0.3 0.2 0.4 1.7 1.3 3.4 2.6 5.1 3.9 0.4 0.3 0.9 0.7 1.3 1.1 -0.2 1.4-0.6 2.7-1.1 4 -0.1 0.3-0.2 0.6-0.5 0.8 -1.8-0.7-3.5-1.4-5.2-2.1 0 0-0.1 0-0.2 0.1 0.8 0.8 1.7 1.4 2.5 2.1 0.8 0.7 1.4 1.6 2.1 2.3 -0.4 1.1-0.9 1.9-1.7 2.8 -0.2 0-0.4-0.1-0.5-0.3 -0.8-0.8-1.8-1.3-2.9-1.7 -0.7-0.2-1.4-0.5-2.1-0.7 -0.1 0-0.2 0-0.4 0 0.1 0.3 0.4 0.4 0.6 0.6 0.3 0.2 0.6 0.4 0.8 0.6 0.2 0.2 0.5 0.3 0.7 0.5 0.2 0.2 0.5 0.4 0.7 0.6 0.2 0.2 0.5 0.4 0.7 0.6 0.3 0.2 0.5 0.4 0.8 0.6 0.2 0.2 0.4 0.4 0.6 0.7 -0.1 0.2-0.2 0.3-0.3 0.4 -0.6 0.5-1.2 1-1.8 1.3 -0.6 0.3-1.2 0.5-1.9 0.1 -0.7-0.3-1.4-0.4-2.2-0.4 -0.7 0-1.3 0.1-2 0.4 -0.5 0.2-1 0.4-1.5 0.6 -0.9 0.3-1.8 0.8-2.5 1.4 -0.4 0.3-0.8 0.5-1.4 0.5 -0.3 0-0.6 0.1-0.9 0.1 -0.7 0.1-1.3 0-2-0.3 -0.4-0.2-0.8-0.3-1.2-0.4 -1.8-0.6-3.6-0.6-5.4-0.2 -0.4 0.1-0.9 0.3-1.3 0.5 -0.5 0.3-1.1 0.4-1.7 0.3 -0.7-0.1-1.4 0-2.1 0 -0.2 0-0.3 0-0.5 0 -0.2-0.3 0-0.5-0.1-0.8 -0.1 0-0.2 0-0.2 0l-1.6-1.2c0.4 0 0.9-0.1 1.3-0.2 0.7-0.2 1.2-0.7 1.5-1.4 0.2-0.6 0.2-1.1 0.2-1.7 -0.1-0.7-0.6-1.1-1.3-1 -0.1 0-0.2 0-0.4 0.1 -0.7 0.2-1.3 0-1.7-0.5 -0.7-0.7-1.6-1.2-2.5-1.6 -0.1 0-0.1-0.1-0.2-0.2 0.1-0.1 0.5-0.3 0.6-0.4 0.4-0.6 0.7-1.7 0.2-2.3 -0.6-0.7-1.3-1.2-2.3-1.4 -1.2-0.3-2.9-0.5-4.1-0.5 -1 0-1.8 0.6-2.3 1.4 -0.2 0.3-0.3 0.6-0.5 0.9 -0.2 0.1-0.4 0.2-0.7 0.2 -1 0.1-2.1 0.1-3.1 0.1 -0.4 0-0.8-0.1-1.2-0.4 -1.3-0.9-2.1-2-2.3-3.6 -0.1-0.5-0.1-0.9-0.1-1.4 0-1.3 0.1-2.5 0.2-3.8 0.2 0.1 0.3 0.1 0.3 0.2 0.2 0.2 0.3 0.4 0.5 0.6 1.2 1.3 3.2 1.1 4.1-0.4 0.2-0.3 0.3-0.7 0.4-1 0.2-0.8 0.5-1.7 0.6-2.6 0.4-2.8 0.7-5.7 0.4-8.5 -0.1-0.9-0.4-1.8-0.8-2.6 -0.2-0.5-0.5-0.9-1-1.1 -0.7-0.4-1.4-0.6-2.1-0.4 -0.2 0.1-0.3 0.1-0.5 0.2 0-0.2-0.1-0.4-0.1-0.5 0.3-1.3 0.6-2.5 1.2-3.7 0.4-0.9 0.9-1.7 1.6-2.4 1.4-1.3 3-1.7 4.7-1 0.9 0.3 1.7 0.8 2.5 1.2 0.7 0.3 1.1 0.9 1.4 1.6 0.4 0.9 0.7 1.9 0.9 2.9 0.1 0.4 0.2 0.8 0.4 1.2 0 0 0.1 0 0.1 0 0 0 0.1 0 0.1 0 0-0.3 0.1-0.6 0.1-0.9 -0.2-1.3-0.5-2.5-1.1-3.7 -0.2-0.5-0.5-1-1-1.3 -1.4-1.1-3-2-4.8-2.5 -0.7-0.2-1.5-0.2-2.2-0.2 -0.6 0-1 0.3-1.5 0.6 -0.8 0.5-1.4 1-2 1.7 -0.2 0.2-0.4 0.5-0.6 0.7 -0.1-0.3 0.1-0.6 0.1-0.9 0-0.2 0.1-0.5 0.1-0.7 0.5-2.3 1.4-4.4 2.6-6.4 0.2-0.3 0.3-0.6 0.5-0.9 1.5-2.8 3.6-5.2 5.8-7.4 1.3-1.3 2.7-2.4 4.2-3.4 0.1-0.1 0.3-0.1 0.5-0.2 0.1 0.1 0.1 0.2 0.1 0.3 0.2 1.8 0.9 3.5 1.8 5 0.3 0.5 0.6 1 1 1.4 1.1 1.4 2.3 2.8 3.6 4.1 0.4 0.4 0.9 0.8 1.4 1.3 0.2 0.2 0.4 0.3 0.6 0.4 0.7 0.4 1.4 0.6 2.2 0.5 0.7-0.1 1.2-0.4 1.7-0.9 -0.2 0-0.3 0-0.4 0 -0.1 0-0.2 0.1-0.2 0.1 -0.8 0.4-1.5 0.2-2.1-0.2 -0.3-0.2-0.6-0.4-0.8-0.6 -0.4-0.4-0.8-0.8-1.1-1.2 -1.2-1.3-2.2-2.7-3.2-4.2 -0.8-1.2-1.5-2.5-1.9-3.9 -0.2-1-0.2-2-0.1-3 0-0.4 0.3-0.6 0.6-0.7 1.2-0.5 2.4-0.9 3.7-1.2 1.9-0.5 3.8-0.8 5.7-1 0.8-0.1 1.6-0.1 2.4 0 2.5 0.1 4.9 0.5 7.3 1 0.9 0.2 1.8 0.5 2.6 0.8 1.6 0.6 3.3 1.3 4.9 2 2.2 1 4.1 2.4 5.8 4.1 1.1 1.1 2 2.2 2.9 3.4 0.1 0.2 0.3 0.4 0.4 0.7 -0.2 0.5-0.8 0.8-0.9 1.5 0 0.4-0.1 0.7-0.1 1.1 0 0.1 0.1 0.1 0.1 0.2 0.5-0.3 1-0.5 1.5-0.8 0.5-0.3 0.9-0.4 1.4-0.3 2 0.2 4 0.4 6 0.8 0.8 0.2 1.5 0.4 2.2 0.8 1.1 0.6 2.2 1.3 3.2 1.9 1.4 0.9 2.9 1.9 4.3 2.8 1.6 1 3.2 2.1 5 2.8C185.3 37.6 185.5 37.7 185.8 37.9zM150.8 54.8c0-1.1 0-2.2-0.1-3.3 -0.1-1.4-0.2-2.8-0.4-4.1 -0.1-1.1-0.3-2.2-0.5-3.2 -0.2-1.2-0.7-2.3-1.5-3.3 -0.4-0.5-0.8-0.9-1.3-1.4 -0.9-1-2.1-1.7-3.4-2 -1.2-0.4-2.5-0.6-3.8-0.9 -1.7-0.3-3.3-0.2-4.9 0.5 -0.9 0.3-1.7 0.8-2.5 1.3 -1.2 0.8-2.2 1.7-2.9 2.9 -0.1 0.1-0.2 0.3-0.2 0.4 -0.1 0.2-0.1 0.4 0 0.6 0.1 0.1 0.4 0 0.5-0.2 0.2-0.2 0.3-0.4 0.5-0.6 1-1.5 2.5-2.5 4.1-3.2 1-0.4 2.1-0.6 3.2-0.5 1.7 0.2 3.3 0.5 4.9 0.9 1.6 0.4 2.9 1.1 3.9 2.4 0.1 0.1 0.2 0.3 0.3 0.4 0.8 0.9 1.2 2 1.4 3.2 0.1 1 0.2 1.9 0.3 2.9 0.1 1.5 0.3 2.9 0.4 4.4 0.2 3.7 0 7.5-0.5 11.2 -0.2 1.5-0.5 2.9-1.2 4.2 -1.1 2.3-2.9 4.1-5 5.6 -0.5 0.3-1 0.6-1.6 0.7 -1.6 0.2-3.2 0.3-4.8 0.2 -1.1-0.1-2.2-0.3-3.3-0.6 -0.6-0.1-1.1-0.4-1.5-0.8 -0.2-0.2-0.4-0.3-0.6-0.5 -0.5-0.3-1-0.7-1.8-1 0.4 0.8 0.7 1.3 0.9 1.8 0.1 0.2 0.2 0.3 0.3 0.4 0.5 0.7 1.1 1.2 2 1.4 0.3 0.1 0.6 0.2 1 0.2 2.2 0.4 4.3 0.6 6.5 0.3 0.2 0 0.4 0 0.6 0 1.4 0 2.6-0.6 3.7-1.4 1.5-1.2 2.8-2.6 3.9-4 1.5-1.9 2.3-4 2.6-6.3 0.1-1 0.3-2 0.3-3C150.6 58.4 150.7 56.6 150.8 54.8zM147.2 51.9c0-0.1 0-0.3 0-0.4 0 0 0 0-0.1 0 0 0.1 0 0.3 0 0.4C147.2 51.9 147.2 51.9 147.2 51.9zM146.9 50.4c0 0 0.1 0 0.1-0.1 0 0 0 0-0.1 0C147 50.3 147 50.4 146.9 50.4zM146.5 49.3c0 0 0-0.1 0-0.1 0 0.1 0 0.1 0 0.2C146.5 49.4 146.5 49.3 146.5 49.3zM135.6 58.2c0.3-2.3 0.4-4.7 0.4-7 0-1.3-0.4-2.6-1.1-3.7 -0.4-0.7-0.9-1.2-1.6-1.5 -1.3-0.6-2.6-0.3-3.5 0.8 -0.3 0.4-0.6 0.9-0.8 1.4 -0.5 1.3-0.9 2.7-1.1 4.1 -0.3 2.3-0.5 4.6-0.5 6.9 0 0.9 0 1.8 0 2.6 0.1 1.3 0.6 2.4 1.4 3.4 1.2 1.4 3.1 1.2 4.2 0.3 0.5-0.5 1-1 1.3-1.7 0.3-0.6 0.5-1.2 0.7-1.9C135.3 60.7 135.5 59.4 135.6 58.2zM127.3 47c0.4-0.7 0.6-1.5 0.6-2.4 -0.7 1-0.8 1.4-0.8 2.5C127.2 47 127.3 47.1 127.3 47zM121 53c-0.3 0.2-0.6 0.5-0.8 0.7 -0.4 0.3-0.8 0.5-1.2 0.6 -0.5 0.1-0.9 0-1.3-0.3 -0.3-0.3-0.6-0.7-0.7-1.1 -0.3-0.9-0.4-1.8-0.4-2.7 0-0.8 0.1-1.5 0.4-2.2 0.4-1.1 1.2-1.7 2.4-1.7 0.1 0 0.2 0 0.3-0.1 -0.1 0-0.1-0.1-0.2-0.1 -0.1 0-0.3 0-0.4 0 -1.2-0.1-2 0.5-2.6 1.4 -0.3 0.5-0.5 1.1-0.5 1.7 -0.1 1.1 0 2.3 0.3 3.4 0.2 0.7 0.4 1.3 0.9 1.8 0.8 0.8 1.7 0.9 2.6 0.2C120.3 54.2 120.8 53.7 121 53z" class="a"/><path d="M183.4 168.3c0 0.1 0.1 0.1 0.1 0.2 -0.3 1.6-1 3-2 4.2 -0.3 0.4-0.7 0.7-1.1 1 -0.6 0.5-1.4 0.8-2.2 0.8 -0.5 0-1.1 0.1-1.6 0.1 -0.5 0-1.1 0-1.6-0.1 -0.7-0.1-1.2-0.5-1.6-1.2 0.4 0.1 0.6 0.1 0.8 0.2 2 0.4 2.8 0.2 4.1-1.4 0.3-0.3 0.5-0.6 0.9-0.8 1-0.4 1.6-1.2 1.7-2.3 0-0.1 0-0.2 0.1-0.4C181.9 168.2 182.4 168.2 183.4 168.3z" class="a"/><path d="M183.1 111.8c-0.1 0.3-0.1 0.5-0.2 0.6 -0.3 0.8-0.7 1.5-1 2.3 -0.2 0.6-0.4 1.3-0.6 1.9 -0.2 1-0.5 1.8-1 2.7 -0.7 1.3-1.4 2.6-2.3 3.7 -0.9 1.2-1.9 2.3-3.1 3.3 -1.8 1.5-3.9 2.4-6.2 2.7 -3.1 0.4-6.1 1.3-9 2.6 -2.9 1.3-5.7 2.9-8.3 4.9 -0.2 0.2-0.5 0.4-0.7 0.5 -2 1.8-3.8 3.7-5.4 5.8 -0.2 0.3-0.4 0.6-0.5 0.8 -0.4 0.6-0.6 1.2-0.3 1.9 0 0-0.1 0.1-0.1 0.2 -0.1-0.1-0.2-0.1-0.2-0.2 -0.2-0.9-0.2-1.7 0.2-2.6 0.8-1.8 1.7-3.6 3-5 1.1-1.2 2.2-2.3 3.3-3.4 2.1-2 4.4-3.9 6.8-5.6 1-0.7 2-1.3 3-1.8 1.3-0.7 2.6-1.1 4.1-1.2 1-0.1 1.9-0.3 2.9-0.4 1.5-0.2 2.9-0.8 4.3-1.5 1.8-0.9 3.5-2 5.1-3.2 1.3-0.9 2.1-2.1 2.5-3.5 0.4-1.4 0.7-2.8 1-4.3 0-0.2 0-0.3 0.1-0.5 0.2-0.4 0-0.9 0.4-1.1 0.3-0.2 0.7 0.1 1.1 0.1C182.3 111.7 182.6 111.7 183.1 111.8z" class="a"/><path d="M179.1 168.9c0 0.2 0 0.4-0.3 0.6 -0.1-0.2-0.2-0.3-0.3-0.5 0-0.1 0.1-0.2 0.1-0.3 0 0 0.2-0.1 0.2 0C179 168.7 179.1 168.8 179.1 168.9z" class="a"/><path d="M178.5 74c0 0 0 0 0 0l0 0C178.5 74 178.5 74 178.5 74z"/><path d="M178.5 74l0 0c0 0 0 0 0 0C178.5 74 178.5 74 178.5 74z"/><path d="M178.5 74c-0.1 0.3-0.4 0.5-0.7 0.5C177.9 74.1 178.1 74 178.5 74z"/><path d="M177.8 74.5c0 0 0 0 0 0l0 0C177.8 74.5 177.8 74.5 177.8 74.5z"/><path d="M177.8 74.5l0 0c0 0 0 0 0 0C177.8 74.5 177.8 74.5 177.8 74.5z"/><path d="M177.8 74.5c0 0.1 0 0.2-0.1 0.2 -0.5 0.3-1 0.7-1.6 1 -0.1 0-0.2 0-0.3 0 0.5-0.6 1.1-0.8 1.7-1.2C177.6 74.5 177.7 74.5 177.8 74.5z"/><path d="M176.7 169.9c0.1 0.2 0.1 0.5 0 0.7 -0.2 0.3-0.4 0.5-0.6 0.8 -0.2 0.3-0.5 0.4-0.9 0.4 -0.3 0-0.7 0-1 0 -0.8 0-1.6 0-2.4 0 -0.3 0-0.7 0.1-1 0.1 -0.1 0-0.3 0.2-0.4 0.3 -0.1 0.1-0.1 0.1-0.1 0.2 -0.3 0.5-0.7 0.6-1.3 0.6 -0.5-0.1-1-0.3-1.5-0.6 -0.2-0.2-0.5-0.3-0.7-0.5 -0.5-0.4-1-0.5-1.6-0.4 -0.4 0.1-0.7 0.2-1.2 0.3 -0.4-0.7-0.7-1.3-1.1-2 0.1-0.1 0.2-0.2 0.3-0.2 0.1 0 0.2 0 0.4 0 1.8-0.1 3.5-0.2 5.3-0.3 1.9-0.1 3.7-0.2 5.6-0.3 0.2 0 0.4 0 0.6 0C175.9 168.9 176.4 169.3 176.7 169.9z" class="a"/><path d="M175.8 75.7c0 0 0 0 0 0l0 0C175.8 75.7 175.8 75.7 175.8 75.7z"/><path d="M175.7 75.7l0 0c0 0 0 0 0 0C175.7 75.7 175.7 75.7 175.7 75.7z"/><path d="M175.7 75.8c-0.1 0.3-0.4 0.5-0.7 0.5C175.2 76 175.4 75.8 175.7 75.8z"/><path d="M175 76.2c0 0 0 0 0 0l0 0C175 76.2 175 76.2 175 76.2z"/><path d="M175 76.2c0 0 0 0 0 0 0 0 0 0 0 0L175 76.2z"/><path d="M174.9 76.2c-0.1 0.4-0.3 0.5-0.7 0.5C174.4 76.4 174.7 76.3 174.9 76.2z"/><path d="M174.3 76.7c0 0 0 0 0 0l0 0C174.2 76.7 174.3 76.7 174.3 76.7z"/><path d="M174.2 76.8l0 0c0 0-0.1 0-0.1 0C174.2 76.8 174.2 76.8 174.2 76.8z"/><path d="M174.2 76.8c-0.2 0.2-0.4 0.4-0.5 0.5C173.7 77 173.8 76.9 174.2 76.8z"/><path d="M173.6 77.3c0 0 0 0 0 0.1l0 0C173.6 77.4 173.6 77.3 173.6 77.3z"/><path d="M173.6 77.4c0 0 0 0 0 0 0 0 0 0 0 0L173.6 77.4z"/><path d="M173.6 77.4c-0.1 0-0.1 0-0.2 0.1 0 0-0.1 0-0.1 0 0 0 0.1-0.1 0.1-0.1C173.5 77.3 173.5 77.3 173.6 77.4z"/><path d="M173.4 38.6c0 0 0 0.1 0 0.1 0 0.1 0 0.1-0.1 0.2C173.4 38.8 173.4 38.7 173.4 38.6z"/><path d="M173.4 38.9v0c0 0 0 0 0 0l0 0C173.4 38.9 173.4 38.9 173.4 38.9z"/><path d="M173.4 38.9c0 0 0 0 0 0 0 0 0 0 0 0L173.4 38.9z"/><path d="M172.6 77.9c0 0 0 0.1 0 0.1 0 0-0.1 0-0.1 0 0 0 0-0.1 0-0.1C172.5 77.8 172.5 77.9 172.6 77.9z"/><polygon points="171.7 78.4 171.7 78.4 171.6 78.4 "/><path d="M163.5 175.2c0.5 2.5 0 4.8-1.7 6.8 -0.4 0.5-0.9 0.9-1.3 1.3 -0.1 0.1-0.4 0.2-0.6 0.3 0-0.2 0-0.3 0-0.4 0.3-0.8 0.6-1.6 0.7-2.5 0.1-0.5 0.1-1.1 0-1.6 -0.3-1.9-0.8-3.7-1.6-5.4 -0.7-1.4-1.8-2.4-3.3-2.9 -2-0.7-4.1-1-6.2-0.9 -0.5 0-1.1 0.1-1.6 0.2 -0.1 0-0.3 0-0.6 0 0.3-0.5 0.7-0.7 1.1-0.9 0.1-0.1 0.2-0.1 0.4-0.1 0.3 0 0.5 0 0.8 0 3.3 0.3 6.5 0.3 9.8 0.3 1.3 0 1-0.1 2 0.8 0.4 0.4 0.8 0.9 1 1.4C162.9 172.9 163.3 174 163.5 175.2z" class="a"/><path d="M158.6 178.7c0.2 1.4 0 2.8-0.9 3.9 -0.4 0.5-0.7 0.9-1.1 1.4 -0.8 0.9-1.8 1.4-2.9 1.6 -2.7 0.5-5.2-0.1-7.4-1.9 -0.7-0.6-1.3-1.4-1.8-2.3 -0.6-1.2-1-2.5-1.1-3.8 -0.3-2.6 1.4-5.4 4.1-6.4 0.2-0.1 0.4-0.1 0.6-0.1 0.5-0.1 0.9-0.1 1.3-0.1 2.2 0.1 4.2 0.6 6 1.5 1 0.5 1.7 1.3 2.2 2.3C158.1 176 158.4 177.3 158.6 178.7zM155.4 179.1c0.1-1.4-0.4-2.5-1.4-3.5 -0.5-0.5-1-0.8-1.6-1.2 -0.4-0.3-0.8-0.4-1.3-0.3 -0.7 0.1-1.5 0.2-2.2 0.4 -0.3 0.1-0.6 0.3-0.9 0.5 -0.8 0.7-1.4 1.5-1.8 2.6 -0.2 0.7-0.3 1.4-0.3 2.1 0.1 1 0.6 1.7 1.2 2.4 1 1.1 2.1 1.7 3.6 1.6 0.2 0 0.4 0 0.6 0 1.3 0 2.3-0.6 3.2-1.6 0.3-0.3 0.5-0.7 0.6-1.1C155.2 180.3 155.3 179.7 155.4 179.1z" class="a"/><path d="M158.9 107.3c0 0.8-0.3 1.5-0.6 2.1 -0.4 0.9-0.9 1.7-1.6 2.4 -0.7 0.7-1.3 1.5-2.1 2.2 -1.2 1.2-2.5 2.4-3.7 3.6 -0.4 0.4-0.6 0.8-0.8 1.3 0 0.1 0 0.2-0.1 0.4 0 0.1-0.1 0.2-0.1 0.3l-0.4-0.1c0-0.1 0.1-0.3-0.1-0.4 -2.7 1.7-4.7 2.5-6.4 2.6 0.2-0.4 0.6-0.6 0.9-0.8 0.6-0.5 1.3-0.9 1.9-1.5 1-1 2.2-1.9 3.3-2.9 0.3-0.2 0.5-0.4 0.8-0.6 0.5-0.4 0.8-0.9 1-1.5 0.3-1.4 0.8-2.8 1.1-4.2l0.4 0.1c-0.3 1.2-0.6 2.5-1 3.7 0 0.2 0 0.3 0 0.5 0.5-0.3 0.8-0.7 1.2-1 0.3-0.3 0.7-0.6 1-0.9 0.4-0.3 0.7-0.7 1.1-1 0.3-0.3 0.6-0.7 1-1 0.4-0.3 0.7-0.7 1.1-1 0.3-0.3 0.6-0.7 1-1C158.1 108.1 158.3 107.6 158.9 107.3z"/><path d="M157.7 156c0 0.5 0 1.1 0 1.6 0 1.1-0.5 1.9-1.3 2.6 -1.1 0.8-2.3 1.3-3.7 1.4 -1.5 0.1-2.9-0.1-4.3-0.4 -0.2-0.1-0.5-0.1-0.7-0.2 -0.3-0.1-0.5-0.3-0.5-0.6 -0.3-1.3-0.7-2.5-1.2-3.7 0-0.1-0.1-0.2-0.1-0.4 -0.4-0.8-0.3-1.7-0.1-2.5 0.4-1.4 0.8-2.9 1.1-4.4 0.3-1.1 0.6-2.3 0.9-3.4 0.1-0.2 0.1-0.4 0.2-0.6 0.6-0.2 1.2 0 1.8 0 0.6 0 1.2 0 1.8 0 0.6 0 1.2-0.1 1.7-0.2 0.6-0.1 1.2-0.2 1.9-0.3 0.1 0.6 0.2 1.1 0.3 1.6 0.3 2.1 0.8 4.2 1.6 6.2C157.5 153.7 157.7 154.9 157.7 156z" class="a"/><path d="M157.6 101.3c0 0.1 0 0.3 0 0.4 -0.3 1.3-0.8 2.5-1.7 3.5 -0.8 1-1.7 2-2.6 2.9 -0.4 0.4-0.6 0.8-0.8 1.4 -0.1 0.2-0.1 0.4-0.2 0.6l-0.4-0.1c0-0.1 0-0.2 0-0.4 -0.3 0-0.4 0.2-0.6 0.4 -1.3 1.3-2.7 2.6-4.2 3.8 -1.6 1.3-3.4 2.4-5.2 3.5 -0.9 0.6-2 0.7-2.9 1.1 -0.2 0.1-0.4 0.2-0.6 0.2 -0.3 0.1-0.6 0.2-0.8 0.3 -0.1 0-0.2 0-0.4-0.1 0.1-0.2 0.2-0.3 0.4-0.4 0.4-0.3 0.8-0.7 1.1-1 1.2-1.3 2.7-2.3 4.2-3.1 1.7-0.9 3.2-2 4.6-3.3 1.5-1.2 2.8-2.6 4.2-3.9 1-0.9 1.6-2 1.9-3.3 0.2-0.9 0.5-1.7 0.7-2.5 0-0.2 0.1-0.3 0.3-0.3 -0.9 3.1-0.9 3.1-0.7 3.7 0.4-0.2 0.6-0.6 0.9-0.9 0.3-0.3 0.6-0.6 0.9-0.9 0.3-0.3 0.6-0.6 0.9-0.9 0.3-0.3 0.4-0.7 0.9-0.9C157.5 101.3 157.6 101.3 157.6 101.3z"/><path d="M155.7 82.8c0.3 1.4 0.7 2.9 0.4 4.3 -0.1 0.6-0.3 1.2-0.6 1.8 -0.3 0.7-0.9 1-1.6 0.9 -0.3 0-0.6-0.1-0.9-0.2 -0.6-0.2-1.1-0.3-1.7-0.5 -1.2-0.4-2.3-0.2-3.3 0.6 -0.8 0.6-1.6 1.2-2.4 1.9 -0.4 0.3-0.8 0.7-1.2 1 -0.9 0.7-1.9 1.3-3.1 1.6 -0.6 0.2-1.3 0.5-1.9 0.7 -0.9 0.3-1.8 0.4-2.7 0.3 -0.9-0.1-1.8-0.1-2.6-0.1 -0.6 0-1.2-0.1-1.9-0.2 -1.7-0.2-2.9-1.2-4-2.4 0-0.3 0-0.5 0.1-0.8 0.4-1.8 0.8-3.5 1.2-5.3 0.1-0.6 0.4-1.2 0.9-1.6 1.9-2.2 4.3-3.6 7.2-4.3 0.6-0.1 1.2-0.2 1.7-0.1 1 0.2 2 0.4 2.9 0.8 0 0 0 0.1 0.1 0.1 0 0.1 0 0.2 0 0.2 -0.3 0.4-0.6 0.9-1 1.3 -0.9 0.9-1.8 1.7-2.7 2.5 -0.3 0.2-0.6 0.4-1 0.5 -0.6 0.3-1.2 0.5-1.8 0.8 -0.1 0-0.2 0.1-0.3 0.2 -0.1 0-0.1 0.1-0.1 0.2 0 0.1 0.1 0.2 0.2 0.2 0.8 0.2 1.6 0.3 2.5 0 0.7-0.2 1.4-0.6 2-1.1 0.6-0.4 1.2-0.8 1.7-1.3 0.5-0.4 1-0.9 1.5-1.4 1-1.1 2.1-1.9 3.3-2.6 1.3-0.8 2.7-1.2 4.1-1.4 0.5-0.1 1 0 1.5 0.2 0.6 0.2 1.2 0.5 1.7 0.8C154.8 81.1 155.5 81.8 155.7 82.8z" class="a"/><path d="M155.6 97.5c0 0 0 0.1-0.1 0.1 0 0 0-0.1 0-0.1C155.5 97.4 155.6 97.4 155.6 97.5z"/><path d="M154 175.6c1 1 1.5 2.1 1.4 3.5 0 0.6-0.1 1.2-0.3 1.9 -0.1 0.4-0.3 0.8-0.6 1.1 -0.9 0.9-1.9 1.5-3.2 1.6 -0.2 0-0.3 0-0.6 0 -1.4 0.1-2.6-0.5-3.6-1.6 -0.6-0.7-1.2-1.4-1.2-2.4 -0.1-0.7 0.1-1.4 0.3-2.1 0.3-1 1-1.9 1.8-2.6 0.2-0.2 0.6-0.4 0.9-0.5 0.7-0.2 1.5-0.3 2.2-0.4 0.5-0.1 0.9 0 1.3 0.3C152.9 174.7 153.5 175.1 154 175.6zM153.8 178.5c0.2-0.1 0.4-0.4 0.3-0.6 -0.2-0.7-0.6-1.3-1.3-1.6 -0.2-0.1-0.3-0.1-0.5 0.1 -0.3 0.3-0.6 0.7-0.7 1.2 0.3 0.5 0.7 0.7 1.1 0.9C153.2 178.6 153.5 178.6 153.8 178.5zM153.6 181.2c0-0.1 0-0.2 0-0.2 0 0-0.1-0.1-0.1-0.1 -0.1 0-0.2 0-0.4-0.1 -1.3-0.1-2.3-0.8-3.2-1.8 -0.5-0.5-0.6-1.2-0.4-1.9 0.1-0.4 0.4-0.8 0.5-1.3 0.1-0.2 0.3-0.3 0.2-0.6 -0.4-0.4-0.8-0.3-1.1 0 -0.5 0.4-0.9 0.9-1.3 1.4 -0.5 0.8-0.6 1.6-0.6 2.5 0 0.8 0.5 1.3 0.9 1.9 0.1 0.1 0.2 0.2 0.3 0.4 0.6 0.6 1.3 1 2.1 1 0.5 0 0.9 0 1.4-0.1C152.7 182.1 153.3 181.8 153.6 181.2z"/><path d="M155.3 98.5c0 0 0 0.1 0 0.1 0 0.1 0 0.2-0.1 0.3 0-0.1 0-0.2 0-0.3C155.2 98.5 155.2 98.5 155.3 98.5z"/><path d="M155.2 98.9c0 0 0 0 0 0.1l0 0C155.2 99 155.2 99 155.2 98.9z"/><path d="M155.2 99l0 0c0 0 0 0 0 0C155.2 99 155.2 99 155.2 99z"/><path d="M154.8 140.6c0.2-0.1 0.4 0.1 0.4 0.3 0 0.4-0.1 0.7-0.1 1.1 -0.8 0.5-1.7 0.7-2.5 1 -1 0.3-2 0.5-3 0.6 -0.3 0-0.7 0.1-1.1-0.1 0-0.3 0.1-0.6 0.1-0.9 0.1-0.5 0.1-0.5 0.7-0.6 0.9-0.1 1.7-0.3 2.6-0.5C152.9 141.2 153.8 140.9 154.8 140.6z" class="a"/><path d="M155.2 99c0 0.1-0.1 0.3-0.1 0.4 0 0.1-0.1 0.3-0.2 0.3 0-0.1 0.1-0.2 0.1-0.3C154.9 99.3 155 99.1 155.2 99z"/><path d="M154.9 99.8c0 0 0 0 0 0.1l0 0C154.8 99.8 154.9 99.8 154.9 99.8z"/><path d="M154.8 99.8l0 0c0 0 0 0 0 0C154.8 99.8 154.8 99.8 154.8 99.8z"/><path d="M154.8 99.9c0.1 0.4 0 0.7-0.1 1.1C154.6 100.6 154.7 100.2 154.8 99.9z"/><path d="M154.7 101c0 0 0 0 0 0l0 0C154.7 101 154.7 101 154.7 101z"/><path d="M154.7 101l0 0c0 0 0 0 0 0C154.7 101 154.7 101 154.7 101z"/><path d="M154.1 177.9c0.1 0.2-0.1 0.5-0.3 0.6 -0.3 0.1-0.7 0.1-1 0 -0.4-0.2-0.8-0.4-1.1-0.9 0.1-0.5 0.4-0.9 0.7-1.2 0.1-0.1 0.3-0.2 0.5-0.1C153.5 176.6 153.9 177.2 154.1 177.9z" class="a"/><path d="M160.4 219.9c0 0.2 0 0.5 0 0.7 0 0 0 0.1-0.1 0.1 -0.2 0-0.3-0.1-0.4-0.2 -0.6-0.5-1.2-1-1.8-1.5 -0.2-0.2-0.5-0.3-0.7-0.5 -0.5-0.2-1 0-1.3 0.4 -0.2 0.3-0.2 0.6 0 0.8 0.2 0.3 0.3 0.5 0.5 0.7 0.3 0.3 0.7 0.6 1.1 0.9 0.1 0.1 0.2 0.2 0.3 0.4 -0.1 0-0.1 0.1-0.1 0.1 -1.1-0.2-2.2-0.3-3.3-0.5 -1.2-1.1-2.3-2.2-3.5-3.3 0.1-0.1 0.1-0.2 0.1-0.2 0.8 0 1.7 0 2.5 0 0.3 0 0.6 0.1 0.9 0.2 0.2 0 0.4 0 0.6-0.1 0.3-0.1 0.5-0.4 0.4-0.7 -0.1-0.2-0.1-0.3-0.2-0.4 -0.1-0.1-0.2-0.3-0.2-0.4 0-0.5 0.2-0.8 0.4-1.2 0.2-0.1 0.3-0.1 0.5 0.1 1.1 0.9 2.2 1.7 3.3 2.6 0.1 0.1 0.2 0.2 0.3 0.3C160.1 218.7 160.4 219.2 160.4 219.9z" class="a"/><path d="M153.7 180.9c0 0.1 0 0.2 0 0.2 -0.4 0.6-0.9 1-1.6 1.1 -0.4 0.1-0.9 0.1-1.4 0.1 -0.8 0-1.5-0.3-2.1-1 -0.1-0.1-0.2-0.2-0.3-0.4 -0.5-0.5-0.9-1.1-0.9-1.9 0-0.9 0.1-1.7 0.6-2.5 0.4-0.5 0.7-1 1.3-1.4 0.4-0.2 0.8-0.4 1.1 0 0.1 0.2-0.1 0.4-0.2 0.6 -0.2 0.4-0.4 0.8-0.5 1.3 -0.2 0.7-0.1 1.3 0.4 1.9 0.9 0.9 1.9 1.7 3.2 1.8 0.1 0 0.2 0 0.4 0.1C153.6 180.9 153.6 180.9 153.7 180.9z" class="a"/><path d="M152.8 98.5c0 0.1 0.1 0.2 0.1 0.3 -0.2 1-0.4 2.1-1 2.9 -1.4 1.9-2.8 3.8-4.5 5.6 -1.4 1.4-3 2.7-4.7 3.8 -1.8 1.2-3.8 2.3-5.7 3.3 -1.5 0.8-3.1 1.1-4.8 1.1 -0.1 0-0.1-0.1-0.4-0.2 0.4-0.2 0.6-0.4 0.8-0.6 0.4-0.2 0.8-0.5 1.2-0.7 1.1-0.8 2.3-1.5 3.5-2.2 0.9-0.5 1.8-1.1 2.7-1.6 2.1-1.3 4.1-2.8 5.9-4.5 1-0.9 1.8-1.8 2.7-2.8 0.5-0.6 1.1-1.3 1.6-1.9 0.7-0.9 1.6-1.6 2.4-2.4C152.5 98.6 152.6 98.6 152.8 98.5z"/><path d="M150.7 51.6c0.1 1.1 0.1 2.2 0.1 3.3 -0.1 1.8-0.2 3.6-0.3 5.4 -0.1 1-0.2 2-0.3 3 -0.3 2.3-1.2 4.4-2.6 6.3 -1.2 1.5-2.5 2.9-3.9 4 -1.1 0.9-2.3 1.4-3.7 1.4 -0.2 0-0.4 0-0.6 0 -2.2 0.3-4.3 0.1-6.5-0.3 -0.3-0.1-0.6-0.2-1-0.2 -0.9-0.2-1.5-0.7-2-1.4 -0.1-0.1-0.2-0.3-0.3-0.4 -0.3-0.5-0.5-1-0.9-1.8 0.8 0.3 1.3 0.7 1.8 1 0.2 0.1 0.4 0.3 0.6 0.5 0.4 0.5 0.9 0.7 1.5 0.8 1.1 0.3 2.2 0.5 3.3 0.6 1.6 0.1 3.2 0 4.8-0.2 0.6-0.1 1.1-0.3 1.6-0.7 2.1-1.5 3.8-3.2 5-5.6 0.6-1.3 1-2.8 1.2-4.2 0.5-3.7 0.6-7.4 0.5-11.2 -0.1-1.5-0.2-2.9-0.4-4.4 -0.1-1-0.2-1.9-0.3-2.9 -0.1-1.2-0.6-2.3-1.4-3.2 -0.1-0.1-0.2-0.3-0.3-0.4 -1-1.2-2.3-2-3.9-2.4 -1.6-0.4-3.3-0.7-4.9-0.9 -1.1-0.1-2.2 0.1-3.2 0.5 -1.6 0.7-3.1 1.7-4.1 3.2 -0.1 0.2-0.3 0.4-0.5 0.6 -0.2 0.2-0.5 0.3-0.5 0.2 -0.1-0.2-0.1-0.4 0-0.6 0.1-0.2 0.2-0.3 0.2-0.4 0.8-1.2 1.7-2.1 2.9-2.9 0.8-0.5 1.6-0.9 2.5-1.3 1.6-0.7 3.2-0.8 4.9-0.5 1.3 0.2 2.5 0.5 3.8 0.9 1.3 0.4 2.5 1.1 3.4 2 0.4 0.5 0.9 0.9 1.3 1.4 0.8 0.9 1.3 2 1.5 3.3 0.2 1.1 0.4 2.2 0.5 3.2C150.5 48.8 150.6 50.2 150.7 51.6z"/><path d="M147.3 51.5c0 0.1 0 0.3 0 0.4 0 0 0 0-0.1 0 0-0.1 0-0.3 0-0.4C147.2 51.5 147.3 51.5 147.3 51.5z"/><path d="M147 50.3c0 0-0.1 0-0.1 0.1 0 0 0-0.1 0-0.1C147 50.3 147 50.3 147 50.3z"/><path d="M146.5 49.2c0 0 0 0.1 0 0.1 0 0 0 0.1-0.1 0.1C146.5 49.3 146.5 49.3 146.5 49.2z"/><path d="M145.8 48.7c0 0 0 0.1 0 0.1 0 0-0.1 0-0.1 0 -0.1 0-0.1 0-0.2 0 0.1 0 0.1-0.1 0.2-0.1C145.7 48.7 145.8 48.7 145.8 48.7z"/><path d="M145.5 48.7c0 0 0 0 0 0l0 0C145.5 48.7 145.5 48.7 145.5 48.7z"/><path d="M145.5 48.7l0 0c0 0 0 0 0 0C145.5 48.7 145.5 48.7 145.5 48.7z"/><path d="M145.1 48.3c0.2 0.1 0.3 0.2 0.3 0.4 -0.9-0.6-1.7-0.3-2.6 0 -0.2 0.1-0.4 0.4-0.7 0.3 0-0.1 0-0.2 0.1-0.2C143 48.2 144 48 145.1 48.3z"/><path d="M144.5 147.4c0.2 0 0.3 0.1 0.3 0.3 0 0.4-0.2 0.7-0.5 1 0-0.4-0.1-0.7-0.1-1.1C144.3 147.5 144.4 147.4 144.5 147.4z" class="a"/><path d="M144.1 159.5c0.1 0.2 0.1 0.5 0.1 0.7 -0.3 0.3-0.6 0.4-0.9 0.4 -2.2 0.6-4.4 0.8-6.6 0.6 -1.5-0.2-2.9-0.5-4.2-1.2 -0.6-0.4-1.1-0.9-1.4-1.5 -0.4-1-0.7-1.9-0.8-3 -0.1-2 0.1-4 0.4-6 0.1-0.7 0.3-1.3 0.4-2 0.1-0.5 0.2-0.6 0.8-0.5 1.4 0.2 2.8 0.3 4.2 0.4 1.5 0.1 3-0.1 4.4-0.6 0.2-0.1 0.5-0.1 0.7-0.2 0.2 0 0.3 0.1 0.3 0.3 0 0.2 0 0.4-0.1 0.6 -0.2 0.7-0.1 1.4 0.1 2.1 0.4 1.6 0.8 3.2 1 4.8 0.2 1.1 0.6 2.1 0.9 3.1C143.7 158.2 143.9 158.9 144.1 159.5z" class="a"/><path d="M143.6 102c0.1 0.2 0 0.3-0.1 0.4 -0.8 1-1.6 2-2.3 2.9 -1.2 1.5-2.5 3-3.7 4.6 -0.5 0.6-1 1.1-1.8 1.3 -0.9 0.3-1.8 0.7-2.8 0.6 -0.2 0-0.3-0.1-0.5-0.1 -0.2 0-0.3-0.3-0.2-0.4 0.1-0.1 0.1-0.1 0.2-0.2 0.7-0.7 1.3-1.4 1.9-2.2 0.3-0.4 0.7-0.8 1.2-1.1 1.4-0.8 2.7-1.8 4-2.8 1.2-1 2.4-1.9 3.6-2.9C143.2 102.2 143.3 102 143.6 102z"/><path d="M143.3 56.7c0 0 0.1 0.1 0.2 0.1 -1 0.1-1.7-0.3-2.1-1.1 -0.2-0.4-0.4-0.8-0.4-1.2 -0.2-1.3-0.2-2.7 0.2-4 0.1-0.4 0.4-0.8 0.6-1.2 0.1-0.1 0.2-0.2 0.4-0.2 0 0.1 0 0.2-0.1 0.3 -0.8 1.2-0.9 2.5-0.8 3.9 0 0.6 0.1 1.2 0.3 1.8C141.8 56 142.3 56.6 143.3 56.7z"/><path d="M142.1 49.1c0 0 0 0 0 0l0 0C142.1 49.1 142.1 49.1 142.1 49.1z"/><path d="M142.1 49.1l0 0c0 0 0 0 0 0C142.1 49.1 142.1 49.1 142.1 49.1z"/><path d="M141.8 143.3c0 0.3 0 0.6-0.1 0.9 0 0.1-0.1 0.2-0.1 0.4 -0.7 0.2-1.4 0.3-2.1 0.3 -0.7 0-1.3 0.1-2 0.1 -0.2 0-0.4 0-0.6 0 -1.6-0.1-3.2-0.2-4.7-0.4 -0.3 0-0.5-0.3-0.4-0.6 0.1-0.4 0.2-0.7 0.3-1 0.1-0.1 0.1-0.1 0.2-0.1 0.1 0 0.2 0 0.4 0 3 0.2 6 0.3 9 0.3C141.6 143.1 141.7 143.2 141.8 143.3z" class="a"/><path d="M136 51.2c0 2.4-0.1 4.7-0.4 7 -0.1 1.3-0.3 2.5-0.6 3.7 -0.1 0.7-0.4 1.3-0.7 1.9 -0.3 0.6-0.7 1.2-1.3 1.7 -1.1 0.9-3 1.1-4.2-0.3 -0.8-1-1.4-2.1-1.4-3.4 -0.1-0.9 0-1.8 0-2.6 0-2.3 0.2-4.6 0.5-6.9 0.2-1.4 0.5-2.8 1.1-4.1 0.2-0.5 0.5-1 0.8-1.4 0.9-1.1 2.2-1.4 3.5-0.8 0.7 0.3 1.2 0.9 1.6 1.5C135.6 48.6 136 49.8 136 51.2z"/><path d="M134.9 164.6c0 0.2-0.1 0.1-0.2 0.1 -0.1 0-0.2 0-0.3 0 -0.8-0.1-1.7-0.2-2.5-0.2 -1.7-0.2-3.3-0.4-5-0.6 -1.2-0.1-2.4-0.3-3.6-0.4 -1.1-0.1-2.2-0.3-3.4-0.4 -0.9-0.1-1.8-0.2-2.7-0.3 -1.2-0.1-2.4-0.2-3.6-0.3 -2.3-0.2-4.6-0.4-6.9-0.7 -1.2-0.1-2.5-0.2-3.8-0.3 -1.5-0.1-3.1-0.2-4.6-0.3 -0.8-0.1-1.6-0.1-2.4-0.1 -4.9-0.1-9.7-1-14.4-2.4 -2.9-0.9-5.7-2-8.4-3.2 -2.6-1.2-5.3-2.3-7.8-3.6 -0.8-0.4-1.5-0.8-2.3-1.3 -0.1-0.1-0.2-0.2-0.4-0.3 0.2-0.3 0.4-0.3 0.6-0.4 2-0.4 4-0.9 6-1.3 1.7-0.3 3.5-0.4 5.2-0.6 0.8-0.1 1.7-0.2 2.5-0.3 1.4-0.1 2.8-0.2 4.1-0.4 0.2 0 0.4 0 0.6-0.1 2.9-0.2 3.6-0.2 6.6 0.6 5 1.2 10 2.6 15 4 2.3 0.6 4.5 1.3 6.8 1.9 0.7 0.2 1.5 0.4 2.2 0.4 1.1 0.1 2.3 0.2 3.4 0.3 1.7 0.1 3.3 0.3 5 0.4 1.6 0.1 3.2 0.2 4.8 0.3 0.3 0 0.6 0.1 0.8 0.1 0.3 0.3 0.3 0.6 0.3 0.9 0.1 1.5 0.5 2.9 1.1 4.2 0.6 1.4 1.6 2.3 2.9 3C131.9 163.9 133.3 164.3 134.9 164.6z" class="a"/><path d="M126.8 78l1.6 1.2c-0.1 0.2-0.2 0.3-0.4 0.5 -0.7 0.8-1.5 1.3-2.6 1.3 -0.4 0-0.8 0-1.3 0 -2.7-0.1-5.4-0.3-8-0.9 -0.6-0.1-1.1-0.3-1.7-0.5 -0.3-0.1-0.7-0.4-1-0.6 -0.3-0.3-0.6-0.6-0.6-1.1 0-0.3-0.1-0.6-0.2-0.9 0.6-0.1 1.2-0.1 1.8-0.2 0.6-0.1 1.1-0.3 1.7-0.4 0.4-0.1 0.8-0.1 1.3 0 0.9 0.2 1.7 0.3 2.6 0.6 1.3 0.5 2.6 0.7 3.9 0.8 0.8 0.1 1.6 0.1 2.4 0.2C126.5 77.9 126.6 78 126.8 78z" class="a"/><path d="M127.9 44.6c0 1-0.2 1.7-0.6 2.4 0 0-0.1 0-0.2 0C127.1 46 127.2 45.6 127.9 44.6z"/><path d="M127.5 74.7c0.2 0 0.3 0 0.5 0 -0.1 0.6-0.3 0.9-0.8 1 -0.6 0.1-1.2 0.2-1.8 0.3 -0.4 0.1-0.8 0.1-1.2 0.1 -1.5 0.2-2.9 0-4.3-0.5 -0.4-0.1-0.8-0.3-1.2-0.4 -1.2-0.5-2.5-0.6-3.8-0.3 -0.7 0.2-1.3 0.2-2 0.1 -0.3 0-0.7-0.1-0.9-0.3 0-0.1 0.1-0.1 0.1-0.2 0.8-0.3 1.5-0.8 2.1-1.4 0.2-0.1 0.3-0.3 0.5-0.4 0.5-0.4 1.1-0.6 1.8-0.4 0.2 0.1 0.4 0.1 0.6 0.1 0.3 0 0.6-0.1 0.8-0.3 0.4-0.4 0.5-1 0.2-1.5 -0.2-0.3-0.5-0.5-0.7-0.7 -0.4-0.3-0.2-1.1 0.3-1.2 0.1 0 0.2-0.1 0.4-0.1 1.2 0 2.3 0 3.5 0.2 0.8 0.2 0.9 0.2 1.6 1.1 0 0.2-0.1 0.4-0.3 0.5 -0.4 0.4-0.9 0.6-1.3 0.9 -0.5 0.3-0.5 0.8-0.1 1.2 0.2 0.2 0.5 0.3 0.8 0.4 0.4 0.1 0.7 0.1 1.1 0.2 0.7 0.1 1.4 0.4 2 0.8 0.2 0.1 0.4 0.2 0.5 0.3C126.2 74.6 126.8 74.8 127.5 74.7z" class="a"/><path d="M120.2 53.7c0.3-0.2 0.6-0.5 0.8-0.7 -0.3 0.7-0.7 1.2-1.3 1.6 -0.9 0.6-1.8 0.5-2.6-0.2 -0.5-0.5-0.8-1.1-0.9-1.8 -0.3-1.1-0.4-2.2-0.3-3.4 0.1-0.6 0.2-1.2 0.5-1.7 0.6-1 1.4-1.5 2.6-1.4 0.1 0 0.3 0 0.4 0 0 0 0.1 0 0.2 0.1 -0.2 0-0.2 0.1-0.3 0.1 -1.2 0-1.9 0.6-2.4 1.7 -0.3 0.7-0.4 1.5-0.4 2.2 0 0.9 0.1 1.8 0.4 2.7 0.2 0.4 0.4 0.8 0.7 1.1 0.4 0.3 0.8 0.4 1.3 0.3C119.4 54.2 119.8 54 120.2 53.7z"/><path d="M113.7 165.2c0.2 0.2 0.1 0.4 0 0.5 -0.1 0.2-0.3 0.4-0.4 0.6 -0.6 1-1.6 1.5-2.7 1.6 -1.9 0.3-3.7 0-5.3-0.9 -0.5-0.2-0.5-0.5-0.1-0.9 0 0 0.1-0.1 0.1-0.2 2.6 0.3 2.8 0 4.4-1.2 0.1 0 0.2 0 0.3 0C111.3 164.9 112.5 165.1 113.7 165.2z" class="a"/><path d="M113 71.2c-0.5 0.6-0.9 0.9-1.4 1.2 -0.3 0.2-0.6 0.1-1 0.1 -0.2 0-0.5 0-0.7 0 -0.7 0.1-1.2 0.6-1.2 1.4 0 0.4 0.2 0.7 0.4 1 0.2 0.2 0.4 0.5 0.6 0.7 -0.1 0-0.1 0.1-0.2 0 -1.3-0.7-2.3-1.7-3.1-2.9 -0.6-0.9-0.9-1.9-1-2.9 -0.2-1.8-0.1-3.5 0.3-5.2 0 0 0.1-0.1 0.1-0.1 0.2 0.3 0.1 0.5 0.1 0.8 0 0.9 0.1 1.8 0.4 2.6 0.7 2 2.1 3.1 4.1 3.5 0.4 0.1 0.9 0 1.4 0C112.1 71.3 112.4 71.3 113 71.2z" class="a"/><path d="M104.1 164.3c0.2 0 0.2 0.3 0.1 0.4 -0.6 0.7-1.2 1.4-1.8 2.1 -0.2 0.3-0.5 0.4-0.9 0.4 -0.5 0-1 0-1.5 0 -1.1-0.1-2.2-0.2-3.4-0.3 -0.6-0.1-1.2-0.1-1.7-0.2 -0.8-0.1-1.5-0.3-2.2-0.8 -0.2-0.2-0.5-0.3-0.7-0.5 -0.8-0.4-1.6-0.5-2.4-0.2 -0.2 0.1-0.3 0.1-0.6 0.2 -0.4-0.6-0.6-1.2-0.9-1.7 0.3-0.3 0.6-0.2 0.9-0.1 1.4 0.2 2.8 0.2 4.3 0.3 0.5 0 0.9 0.1 1.4 0.1 2.9 0 5.9 0.2 8.8 0.3C103.6 164.3 103.9 164.3 104.1 164.3z" class="a"/><path d="M88.1 168.7c0.1 1.3-0.2 2.5-0.8 3.6 -0.3 0.5-0.6 0.9-1.1 1.1 -0.7 0.4-1.5 0.8-2.2 1.2 -0.6 0.4-1.3 0.8-1.9 1.2 -0.1 0.1-0.3 0.1-0.5 0.2 0-0.3 0-0.4 0.1-0.6 0.5-1.6 0.5-3.3 0.2-5 -0.1-0.7-0.2-1.4-0.4-2.1 -0.3-1.2-0.8-2.3-1.4-3.3 -0.6-1-1.4-1.7-2.5-2.2 -0.3-0.2-0.7-0.3-1-0.5 0 0 0-0.1 0-0.1 0 0 0-0.1 0-0.1 0.1 0 0.1-0.1 0.2-0.1 0.9-0.1 1.7-0.2 2.6-0.4 0.4-0.1 0.8 0 1.2 0.1 1.3 0.3 2.6 0.7 3.9 1 0.3 0.1 0.6 0.2 0.9 0.5 0.5 0.6 1.1 1.2 1.6 1.8 0.7 0.8 1 1.8 1.1 2.9C88.1 168.1 88.1 168.4 88.1 168.7z" class="a"/><path d="M80 171.5c0 0.6-0.1 1.4-0.3 2.2 -0.1 0.7-0.4 1.4-0.8 2 -0.6 0.9-1.4 1.5-2.4 1.7 -1.5 0.4-3 0.5-4.6 0.1 -1.2-0.3-2.2-0.9-3-1.9 -0.7-0.8-1.2-1.6-1.6-2.5 -0.6-1.2-0.6-2.4-0.2-3.7 0.8-2.3 2.1-4.1 4.1-5.6 0.3-0.2 0.6-0.3 0.9-0.3 0.2 0 0.3 0 0.5 0.1 1.2 0.5 2.4 0.6 3.6 0.9 0.2 0.1 0.5 0.1 0.7 0.2 1.3 0.4 2.2 1.3 2.6 2.7C79.8 168.8 79.9 170 80 171.5zM77.4 172.3c0.1-0.5 0.1-0.9-0.1-1.4 -0.1-0.5-0.4-0.8-0.7-1.2 -0.6-0.7-1.3-1.3-1.9-2 -0.8-0.7-1.7-1-2.8-0.6 -0.4 0.1-0.8 0.3-1.2 0.5 -0.5 0.2-0.9 0.6-1.1 1.1 -0.4 0.8-0.7 1.6-0.7 2.8 0 0 0 0.3 0.1 0.6 0.5 1.8 1.5 3 3.3 3.7 0.9 0.3 1.7 0.3 2.5-0.2C76.2 174.9 77 173.8 77.4 172.3z" class="a"/><path d="M77.3 171c0.1 0.4 0.2 0.9 0.1 1.4 -0.3 1.5-1.2 2.6-2.5 3.3 -0.8 0.5-1.6 0.5-2.5 0.2 -1.8-0.6-2.8-1.9-3.3-3.6 -0.1-0.3-0.1-0.6-0.1-0.6 0-1.1 0.2-2 0.7-2.8 0.3-0.5 0.6-0.9 1.1-1.1 0.4-0.2 0.8-0.3 1.2-0.5 1.1-0.4 2-0.1 2.8 0.6 0.7 0.6 1.3 1.3 1.9 2C76.9 170.1 77.2 170.5 77.3 171zM76 171.3c0.1 0 0.3-0.2 0.3-0.4 -0.2-0.7-0.6-1.4-1.1-1.9 -0.1-0.1-0.2-0.1-0.3-0.1 -0.2 0-0.3 0.2-0.3 0.3 -0.1 0.6 0 1.2 0.4 1.9C75.2 171.3 75.6 171.3 76 171.3zM75.5 173.3c-0.2-0.1-0.3-0.2-0.5-0.2 -0.3-0.1-0.6-0.1-0.9-0.1 -0.7-0.1-1.1-0.5-1.3-1.2 -0.1-0.3-0.1-0.6-0.2-0.9 -0.1-0.4-0.1-0.7-0.1-1.1 0-0.4 0-0.7 0.1-1.1 -0.4 0.1-0.7 0.3-1 0.5 -0.7 0.7-1.1 1.5-0.9 2.5 0.3 1.4 1.2 2.4 2.7 2.8 0.1 0 0.3 0 0.4 0C74.6 174.3 75.1 174 75.5 173.3z"/><path d="M76.2 171c0 0.1-0.1 0.4-0.3 0.4 -0.4 0-0.7 0-1.2-0.1 -0.4-0.7-0.4-1.3-0.4-1.9 0-0.2 0.1-0.3 0.3-0.3 0.1 0 0.3 0 0.3 0.1C75.6 169.6 76 170.2 76.2 171z" class="a"/><path d="M75 173.1c0.2 0 0.3 0.1 0.5 0.2 -0.4 0.6-1 1-1.6 1.1 -0.1 0-0.3 0-0.4 0 -1.5-0.4-2.5-1.4-2.7-2.8 -0.2-0.9 0.2-1.8 0.9-2.5 0.3-0.3 0.6-0.5 1-0.5 0 0.4-0.1 0.8-0.1 1.1 0 0.4 0.1 0.7 0.1 1.1 0 0.3 0.1 0.6 0.2 0.9 0.2 0.7 0.6 1.1 1.3 1.2C74.4 173 74.7 173 75 173.1z" class="a"/><path d="M38.2 165.6c0 0 0 0 0 0 0 0 0 0-0.1 0L38.2 165.6z"/><path d="M38.2 165.6l0 0c0 0 0 0-0.1 0C38.1 165.6 38.1 165.6 38.2 165.6z"/><path d="M38.1 165.6c-0.7 0.1-1.3 0-2 0 -0.1 0-0.3-0.2-0.4-0.3 0.3 0 0.5 0.1 0.8 0.1C37 165.6 37.5 165.6 38.1 165.6z"/><path d="M35.7 165.4c0 0 0 0 0 0 0 0 0 0 0 0L35.7 165.4z"/><path d="M35.7 165.4c-0.7 0.1-1.3 0.1-2.2 0C34.3 165.2 35 165.4 35.7 165.4z"/><path d="M32.3 165.1c0 0 0 0 0 0 -0.2 0-0.5 0-0.7 0 0 0 0 0 0 0C31.9 165.1 32.1 165.1 32.3 165.1z"/><path d="M30.3 166.2c0 0 0 0 0 0l0 0C30.3 166.2 30.3 166.2 30.3 166.2z"/><path d="M30.3 166.1l0 0c0 0 0 0 0 0C30.3 166.2 30.3 166.2 30.3 166.1z"/><path d="M30.3 166.2c-0.6 0.1-1.3 0-1.9 0 0.3-0.2 0.5-0.1 0.8-0.1C29.5 166.1 29.9 166.1 30.3 166.2z"/><path d="M29.6 164.9c-0.1 0-0.1 0-0.2 0 0 0 0 0 0 0C29.5 164.8 29.5 164.8 29.6 164.9z"/><path d="M27.3 165.8c0 0 0 0 0 0.1 -0.3 0-0.6 0-0.9 0 0 0 0 0 0-0.1C26.7 165.8 27 165.8 27.3 165.8z"/><path d="M27.1 167.4c0 0 0 0 0 0 0 0 0 0 0 0L27.1 167.4z"/><path d="M27.1 167.4l0 0c0 0 0 0 0 0C27 167.4 27.1 167.4 27.1 167.4z"/><path d="M27 167.4c-0.5 0.1-1.1 0-1.7-0.1 0.2 0 0.3 0 0.5 0C26.2 167.3 26.6 167.4 27 167.4z"/><polygon points="23.6 167.1 23.6 167.1 23.5 167.1 "/><path d="M2 159.5c0.4 0 0.8 0 1.2 0C2.8 159.7 2.4 159.6 2 159.5z"/><path d="M0.1 159.3c0 0-0.1 0-0.1 0 0 0 0 0 0 0 0 0 0.1 0 0.1 0C0.1 159.3 0.1 159.3 0.1 159.3z"/></svg>
